<svg width="246" height="128" viewBox="0 0 246 128" fill="none" xmlns="http://www.w3.org/2000/svg">
<g filter="url(#filter0_dd_569_173)">
<rect x="44.75" y="28.75" width="156.5" height="50.5" rx="15.25" stroke="url(#paint0_linear_569_173)" stroke-width="1.5" shape-rendering="crispEdges"/>
<path d="M86.256 60.16C85.4667 60.16 84.736 60.016 84.064 59.728C83.4027 59.4293 82.8267 59.0187 82.336 58.496C81.8453 57.9627 81.4667 57.3387 81.2 56.624C80.9333 55.8987 80.8 55.104 80.8 54.24C80.8 53.376 80.9333 52.5867 81.2 51.872C81.4667 51.1467 81.84 50.5227 82.32 50C82.8107 49.4667 83.3867 49.056 84.048 48.768C84.72 48.4693 85.4507 48.32 86.24 48.32C87.104 48.32 87.8773 48.496 88.56 48.848C89.2533 49.2 89.8187 49.696 90.256 50.336C90.704 50.976 90.9813 51.7227 91.088 52.576H89.776C89.648 51.6267 89.2693 50.88 88.64 50.336C88.0213 49.7813 87.2267 49.504 86.256 49.504C85.4347 49.504 84.7147 49.7067 84.096 50.112C83.4773 50.5067 82.9973 51.0613 82.656 51.776C82.3147 52.48 82.144 53.3013 82.144 54.24C82.144 55.1787 82.3147 56.0053 82.656 56.72C82.9973 57.424 83.4773 57.9787 84.096 58.384C84.7147 58.7787 85.4293 58.976 86.24 58.976C87.232 58.976 88.0427 58.6987 88.672 58.144C89.312 57.5893 89.6907 56.8427 89.808 55.904H91.12C91.0133 56.7573 90.736 57.504 90.288 58.144C89.8507 58.784 89.2853 59.28 88.592 59.632C87.9093 59.984 87.1307 60.16 86.256 60.16ZM96.4845 60.16C95.6845 60.16 94.9805 59.9733 94.3725 59.6C93.7645 59.2267 93.2898 58.72 92.9485 58.08C92.6178 57.4293 92.4525 56.6987 92.4525 55.888C92.4525 55.0667 92.6232 54.3413 92.9645 53.712C93.3058 53.0827 93.7752 52.5867 94.3725 52.224C94.9805 51.8613 95.6845 51.68 96.4845 51.68C97.2952 51.68 97.9992 51.8613 98.5965 52.224C99.2045 52.5867 99.6738 53.0827 100.005 53.712C100.346 54.3413 100.517 55.0667 100.517 55.888C100.517 56.6987 100.346 57.4293 100.005 58.08C99.6738 58.72 99.2045 59.2267 98.5965 59.6C97.9992 59.9733 97.2952 60.16 96.4845 60.16ZM96.4845 59.072C97.0392 59.072 97.5192 58.9387 97.9245 58.672C98.3298 58.3947 98.6445 58.016 98.8685 57.536C99.0925 57.056 99.2045 56.5013 99.2045 55.872C99.2045 54.9333 98.9538 54.1813 98.4525 53.616C97.9618 53.0507 97.3058 52.768 96.4845 52.768C95.6738 52.768 95.0178 53.0507 94.5165 53.616C94.0152 54.1813 93.7645 54.9333 93.7645 55.872C93.7645 56.5013 93.8765 57.056 94.1005 57.536C94.3245 58.016 94.6392 58.3947 95.0445 58.672C95.4605 58.9387 95.9405 59.072 96.4845 59.072ZM102.436 60V51.84H103.636V53.76H103.716V60H102.436ZM108.276 60V54.656C108.276 54.0373 108.122 53.5733 107.812 53.264C107.503 52.9547 107.044 52.8 106.436 52.8C105.903 52.8 105.428 52.9173 105.012 53.152C104.607 53.3867 104.287 53.712 104.052 54.128C103.828 54.544 103.716 55.0293 103.716 55.584L103.508 53.648C103.786 53.04 104.207 52.56 104.772 52.208C105.348 51.856 105.999 51.68 106.724 51.68C107.578 51.68 108.26 51.9253 108.772 52.416C109.295 52.896 109.556 53.5307 109.556 54.32V60H108.276ZM115.06 60.144C114.153 60.144 113.492 59.9413 113.076 59.536C112.67 59.12 112.468 58.5227 112.468 57.744V49.936L113.748 49.456V57.728C113.748 58.1867 113.865 58.5227 114.1 58.736C114.334 58.9493 114.718 59.056 115.252 59.056C115.465 59.056 115.646 59.0453 115.796 59.024C115.956 58.992 116.084 58.9547 116.18 58.912V60C116.073 60.0427 115.918 60.0747 115.716 60.096C115.524 60.128 115.305 60.144 115.06 60.144ZM110.788 52.928V51.84H116.18V52.928H110.788ZM122.835 60C122.792 59.8187 122.76 59.6107 122.739 59.376C122.728 59.1413 122.723 58.8427 122.723 58.48H122.643V54.576C122.643 53.9573 122.499 53.504 122.211 53.216C121.934 52.9173 121.48 52.768 120.851 52.768C120.232 52.768 119.736 52.896 119.363 53.152C119 53.3973 118.798 53.7493 118.755 54.208H117.523C117.576 53.4187 117.907 52.8 118.515 52.352C119.123 51.904 119.918 51.68 120.899 51.68C121.912 51.68 122.664 51.92 123.155 52.4C123.646 52.88 123.891 53.6 123.891 54.56V58.48C123.891 58.7147 123.907 58.96 123.939 59.216C123.971 59.4613 124.014 59.7227 124.067 60H122.835ZM120.035 60.16C119.192 60.16 118.52 59.9573 118.019 59.552C117.528 59.136 117.283 58.5707 117.283 57.856C117.283 57.1413 117.528 56.5867 118.019 56.192C118.51 55.7973 119.224 55.52 120.163 55.36L123.011 54.88V55.936L120.355 56.352C119.758 56.448 119.304 56.608 118.995 56.832C118.686 57.056 118.531 57.3813 118.531 57.808C118.531 58.224 118.67 58.5387 118.947 58.752C119.235 58.9653 119.656 59.072 120.211 59.072C120.926 59.072 121.507 58.912 121.955 58.592C122.414 58.2613 122.643 57.8347 122.643 57.312L122.851 58.448C122.68 58.992 122.344 59.4133 121.843 59.712C121.352 60.0107 120.75 60.16 120.035 60.16ZM129.59 60.16C128.843 60.16 128.177 59.9787 127.59 59.616C127.014 59.2427 126.555 58.736 126.214 58.096C125.883 57.4453 125.718 56.7093 125.718 55.888C125.718 55.0667 125.883 54.3413 126.214 53.712C126.555 53.0827 127.014 52.5867 127.59 52.224C128.177 51.8613 128.838 51.68 129.574 51.68C130.182 51.68 130.726 51.7973 131.206 52.032C131.697 52.2667 132.097 52.6027 132.406 53.04C132.726 53.4667 132.929 53.968 133.014 54.544H131.83C131.723 54.0213 131.478 53.5947 131.094 53.264C130.71 52.9333 130.214 52.768 129.606 52.768C129.083 52.768 128.63 52.896 128.246 53.152C127.862 53.408 127.563 53.7707 127.35 54.24C127.137 54.7093 127.03 55.2587 127.03 55.888C127.03 56.5173 127.137 57.072 127.35 57.552C127.563 58.032 127.862 58.4053 128.246 58.672C128.641 58.9387 129.099 59.072 129.622 59.072C130.209 59.072 130.699 58.912 131.094 58.592C131.489 58.2613 131.739 57.8347 131.846 57.312H133.03C132.934 57.8773 132.721 58.3787 132.39 58.816C132.07 59.2427 131.67 59.5733 131.19 59.808C130.71 60.0427 130.177 60.16 129.59 60.16ZM138.122 60.144C137.215 60.144 136.554 59.9413 136.138 59.536C135.733 59.12 135.53 58.5227 135.53 57.744V49.936L136.81 49.456V57.728C136.81 58.1867 136.927 58.5227 137.162 58.736C137.397 58.9493 137.781 59.056 138.314 59.056C138.527 59.056 138.709 59.0453 138.858 59.024C139.018 58.992 139.146 58.9547 139.242 58.912V60C139.135 60.0427 138.981 60.0747 138.778 60.096C138.586 60.128 138.367 60.144 138.122 60.144ZM133.85 52.928V51.84H139.242V52.928H133.85ZM148.493 60.16C147.106 60.16 146.023 59.7387 145.245 58.896C144.477 58.0427 144.093 56.8533 144.093 55.328V48.48H145.405V55.392C145.405 56.544 145.671 57.4293 146.205 58.048C146.738 58.6667 147.501 58.976 148.493 58.976C149.506 58.976 150.279 58.672 150.812 58.064C151.346 57.4453 151.613 56.5547 151.613 55.392V48.48H152.925V55.344C152.925 56.8587 152.535 58.0427 151.757 58.896C150.978 59.7387 149.89 60.16 148.493 60.16ZM158.032 60.16C157.03 60.16 156.23 59.9307 155.632 59.472C155.035 59.0027 154.694 58.3413 154.608 57.488H155.84C155.915 58.0107 156.144 58.4107 156.528 58.688C156.912 58.9653 157.424 59.104 158.064 59.104C158.63 59.104 159.072 58.9973 159.392 58.784C159.712 58.5707 159.872 58.2667 159.872 57.872C159.872 57.5947 159.782 57.3547 159.6 57.152C159.419 56.9387 159.056 56.7627 158.512 56.624L157.2 56.288C156.454 56.096 155.894 55.8027 155.52 55.408C155.147 55.0027 154.96 54.5227 154.96 53.968C154.96 53.264 155.222 52.7093 155.744 52.304C156.267 51.888 156.976 51.68 157.872 51.68C158.758 51.68 159.478 51.8933 160.032 52.32C160.587 52.7467 160.902 53.3387 160.976 54.096H159.744C159.67 53.6587 159.467 53.3227 159.136 53.088C158.806 52.8533 158.368 52.736 157.824 52.736C157.302 52.736 156.896 52.8373 156.608 53.04C156.32 53.232 156.176 53.5093 156.176 53.872C156.176 54.1493 156.278 54.3893 156.48 54.592C156.694 54.7947 157.046 54.9653 157.536 55.104L158.816 55.456C159.574 55.6587 160.144 55.968 160.528 56.384C160.912 56.8 161.104 57.3013 161.104 57.888C161.104 58.6027 160.832 59.1627 160.288 59.568C159.744 59.9627 158.992 60.16 158.032 60.16Z" fill="white"/>
</g>
<defs>
<filter id="filter0_dd_569_173" x="0" y="-12" width="246" height="140" filterUnits="userSpaceOnUse" color-interpolation-filters="sRGB">
<feFlood flood-opacity="0" result="BackgroundImageFix"/>
<feColorMatrix in="SourceAlpha" type="matrix" values="0 0 0 0 0 0 0 0 0 0 0 0 0 0 0 0 0 0 127 0" result="hardAlpha"/>
<feOffset/>
<feGaussianBlur stdDeviation="4.5"/>
<feComposite in2="hardAlpha" operator="out"/>
<feColorMatrix type="matrix" values="0 0 0 0 1 0 0 0 0 0.266667 0 0 0 0 0.266667 0 0 0 1 0"/>
<feBlend mode="normal" in2="BackgroundImageFix" result="effect1_dropShadow_569_173"/>
<feColorMatrix in="SourceAlpha" type="matrix" values="0 0 0 0 0 0 0 0 0 0 0 0 0 0 0 0 0 0 127 0" result="hardAlpha"/>
<feOffset dy="4"/>
<feGaussianBlur stdDeviation="22"/>
<feComposite in2="hardAlpha" operator="out"/>
<feColorMatrix type="matrix" values="0 0 0 0 1 0 0 0 0 0.956667 0 0 0 0 0.566667 0 0 0 0.95 0"/>
<feBlend mode="normal" in2="effect1_dropShadow_569_173" result="effect2_dropShadow_569_173"/>
<feBlend mode="normal" in="SourceGraphic" in2="effect2_dropShadow_569_173" result="shape"/>
</filter>
<linearGradient id="paint0_linear_569_173" x1="103.16" y1="37.75" x2="123.185" y2="1.89265" gradientUnits="userSpaceOnUse">
<stop offset="0.0695937" stop-color="#050114" stop-opacity="0"/>
<stop offset="0.583333" stop-color="#C15A5A"/>
<stop offset="0.97073" stop-color="#FFA28B"/>
</linearGradient>
</defs>
</svg>
