<svg width="44" height="34" viewBox="0 0 44 34" fill="none" xmlns="http://www.w3.org/2000/svg">
<path d="M33.0103 26.5449C34.6139 26.5449 36.1518 25.9079 37.2858 24.7739C38.4197 23.64 39.0567 22.1021 39.0567 20.4985C39.0567 18.8949 38.4197 17.3569 37.2858 16.223C36.1518 15.0891 34.6139 14.452 33.0103 14.452H31.2827C31.9686 11.3977 30.7904 8.24496 28.1939 6.18226C25.5974 4.12129 21.9747 3.46137 18.6924 4.45471C15.41 5.44805 12.9655 7.94264 12.2797 10.9969C8.4808 10.8449 5.10171 13.2877 4.21894 16.824C3.33443 20.3603 5.19327 24.0002 8.65183 25.5084" stroke="#7D54A5" stroke-width="2" stroke-linecap="round" stroke-linejoin="round"/>
<path d="M17.4629 21.3624V17.9072C17.4629 16.9909 17.8269 16.1121 18.4749 15.4641C19.1228 14.8162 20.0017 14.4521 20.918 14.4521C21.8344 14.4521 22.7132 14.8162 23.3611 15.4641C24.0091 16.1121 24.3731 16.9909 24.3731 17.9072V21.3624M14.0078 23.0899C14.0078 22.6317 14.1898 22.1923 14.5138 21.8683C14.8378 21.5444 15.2772 21.3624 15.7354 21.3624H26.1007C26.5588 21.3624 26.9982 21.5444 27.3222 21.8683C27.6462 22.1923 27.8282 22.6317 27.8282 23.0899V28.2726C27.8282 28.7307 27.6462 29.1701 27.3222 29.4941C26.9982 29.8181 26.5588 30.0001 26.1007 30.0001H15.7354C15.2772 30.0001 14.8378 29.8181 14.5138 29.4941C14.1898 29.1701 14.0078 28.7307 14.0078 28.2726V23.0899Z" stroke="#7D54A5" stroke-width="2" stroke-linecap="round" stroke-linejoin="round"/>
</svg>
