<svg width="483" height="45" viewBox="0 0 483 45" fill="none" xmlns="http://www.w3.org/2000/svg">
<g style="mix-blend-mode:luminosity">
<g clip-path="url(#clip0_151_4173)">
<path d="M1.15214 30.3852C1.82741 30.7991 3.22894 31.2841 4.3129 31.2841C5.42475 31.2841 5.8824 30.8947 5.8824 30.2902C5.8824 29.6857 5.52199 29.3919 4.14494 28.9315C1.70569 28.1064 0.76725 26.7723 0.789011 25.3652C0.789011 23.1567 2.67336 21.4852 5.59271 21.4852C6.96977 21.4852 8.19993 21.7981 8.92484 22.1628L8.27405 24.7087C7.74295 24.4177 6.72904 24.0311 5.71512 24.0311C4.82088 24.0311 4.31358 24.3931 4.31358 25.0004C4.31358 25.5585 4.77464 25.8501 6.22174 26.359C8.46582 27.135 9.4097 28.2717 9.43146 30.0211C9.43146 32.2268 7.69399 33.8525 4.31358 33.8525C2.76857 33.8525 1.39423 33.511 0.5 33.0273L1.15214 30.3852ZM22.3499 27.551C22.3499 31.8914 19.2844 33.8819 16.1209 33.8819C12.6677 33.8791 10.0156 31.5997 10.0156 27.7662C10.0156 23.9327 12.5256 21.4873 16.3181 21.4873C19.9372 21.4873 22.3499 23.984 22.3499 27.551ZM13.8033 27.6706C13.8033 29.7075 14.6486 31.2349 16.2181 31.2349C17.6462 31.2349 18.5601 29.8004 18.5601 27.6706C18.5601 25.9007 17.8855 24.1042 16.2181 24.1042C14.4562 24.1042 13.8033 25.9226 13.8033 27.6706ZM23.659 25.5359C23.659 24.0577 23.61 22.7968 23.5617 21.7544H26.749L26.917 23.3767H26.9904C27.4732 22.6253 28.6789 21.4873 30.6333 21.4873C33.0488 21.4873 34.8597 23.0857 34.8597 26.579V33.6148H31.1875V27.0394C31.1875 25.5113 30.6564 24.4689 29.3283 24.4689C28.3144 24.4689 27.7126 25.1712 27.4719 25.8522C27.3739 26.0701 27.325 26.4321 27.325 26.7723V33.6121H23.659V25.5359ZM43.5524 33.6121L43.3369 32.4221H43.2689C42.4963 33.3696 41.2873 33.8791 39.8885 33.8791C37.4975 33.8791 36.0742 32.1311 36.0742 30.241C36.0742 27.1617 38.8256 25.6801 43.003 25.7046V25.5359C43.003 24.9041 42.663 24.0085 40.8534 24.0085C39.647 24.0085 38.3679 24.4184 37.5954 24.9041L36.9154 22.5303C37.7369 22.0672 39.3553 21.4873 41.5022 21.4873C45.4375 21.4873 46.6928 23.8152 46.6928 26.6036V30.726C46.6928 31.864 46.7417 32.9556 46.8635 33.6121H43.5524ZM43.1186 28.0107C41.1887 27.9862 39.6899 28.4486 39.6899 29.8783C39.6899 30.8257 40.3189 31.2861 41.1397 31.2861C41.5586 31.2879 41.9675 31.1578 42.309 30.9141C42.6506 30.6704 42.9075 30.3254 43.0438 29.9275C43.0933 29.7206 43.1178 29.5084 43.1165 29.2956L43.1186 28.0107ZM48.6268 25.6562C48.6268 23.9109 48.5778 22.7722 48.5295 21.7544H51.6923L51.8147 23.9348H51.9093C52.5138 22.2141 53.9616 21.4873 55.0972 21.4873C55.3556 21.4773 55.6144 21.4928 55.8697 21.5337V25.0024C55.5438 24.938 55.2125 24.905 54.8803 24.9041C53.5277 24.9041 52.6117 25.6343 52.3642 26.7723C52.3165 27.0447 52.2937 27.3209 52.2962 27.5975V33.6121H48.6241L48.6268 25.6562ZM80.0895 30.4097C80.0895 31.6215 80.114 32.6892 80.1868 33.6121H78.3031L78.1814 31.6953H78.1351C77.5796 32.64 76.346 33.8812 74.2726 33.8812C72.4365 33.8812 70.2387 32.8627 70.2387 28.7403V21.8739H72.3638V28.3707C72.3638 30.6003 73.039 32.1065 74.9717 32.1065C76.395 32.1065 77.3844 31.1099 77.772 30.1652C77.8997 29.8151 77.9649 29.4451 77.9645 29.0723V21.8739H80.0895V30.4097ZM82.556 33.6121C82.6049 32.8115 82.6512 31.6215 82.6512 30.5785V16.3928H84.7504V23.7661H84.7994C85.5474 22.4566 86.9 21.6068 88.7837 21.6068C91.6785 21.6068 93.7309 24.0331 93.7064 27.5975C93.7064 31.793 91.0747 33.8819 88.4702 33.8819C86.7789 33.8819 85.4284 33.2254 84.5587 31.6735H84.4852L84.3907 33.6148L82.556 33.6121ZM84.7504 28.907C84.7575 29.1682 84.7901 29.4281 84.8477 29.6829C85.2557 31.1618 86.4879 32.1796 88.0329 32.1796C90.2559 32.1796 91.5813 30.3612 91.5813 27.6713C91.5813 25.3187 90.3749 23.307 88.1064 23.307C86.6586 23.307 85.306 24.3009 84.8722 25.9232C84.8239 26.1685 84.7504 26.4574 84.7504 26.7976V28.907ZM96.608 28.131C96.6543 31.017 98.4897 32.2042 100.615 32.2042C102.135 32.2042 103.054 31.9378 103.848 31.5997L104.211 33.1271C103.463 33.4652 102.184 33.8545 100.324 33.8545C96.7277 33.8545 94.5782 31.4774 94.5782 27.9377C94.5782 24.3979 96.6543 21.6082 100.058 21.6082C103.873 21.6082 104.887 24.9792 104.887 27.1412C104.884 27.4736 104.862 27.8055 104.819 28.1351L96.608 28.131ZM102.834 26.6036C102.859 25.2449 102.281 23.1342 99.8905 23.1342C97.741 23.1342 96.8005 25.1247 96.6264 26.6036H102.834Z" fill="white"/>
<path fill-rule="evenodd" clip-rule="evenodd" d="M67.7165 23.9875C67.0431 22.9925 66.1018 22.2107 65.0025 21.7333C63.9031 21.2559 62.6913 21.1026 61.5084 21.2914C60.3256 21.4803 59.2207 22.0034 58.3229 22.7996C57.4251 23.5959 56.7715 24.6323 56.4384 25.7879C56.1053 26.9435 56.1065 28.1705 56.4419 29.3254C56.7773 30.4803 57.433 31.5155 58.3324 32.3099C59.2318 33.1043 60.3377 33.6252 61.5209 33.8117C62.7041 33.9981 63.9157 33.8424 65.014 33.3628L67.456 37.3452L69.3934 36.0214L66.9528 32.0383C67.9942 30.9957 68.6404 29.6204 68.7798 28.1501C68.9193 26.6799 68.5431 25.2068 67.7165 23.9854M64.9814 31.22C64.2584 31.7137 63.4059 31.9809 62.5316 31.9879C61.6574 31.9949 60.8007 31.7413 60.07 31.2592C59.3393 30.7771 58.7672 30.0882 58.4263 29.2795C58.0854 28.4708 57.9908 27.5788 58.1546 26.7162C58.3184 25.8535 58.7331 25.059 59.3464 24.4332C59.9598 23.8073 60.744 23.3782 61.6001 23.2002C62.4562 23.0221 63.3456 23.103 64.156 23.4327C64.9663 23.7624 65.661 24.326 66.1524 25.0524C66.8104 26.0265 67.0566 27.2232 66.837 28.3795C66.6175 29.5359 65.9501 30.5574 64.9814 31.22Z" fill="white"/>
<path d="M119.407 33.6613H117.911C117.911 21.5584 107.968 11.711 95.748 11.711V10.2083C108.793 10.2083 119.407 20.7291 119.407 33.6613Z" fill="#4E9BCD"/>
<path d="M120.441 25.5906C118.644 17.9967 112.519 11.6556 104.84 9.44379L105.18 8.23951C113.286 10.577 119.751 17.2733 121.651 25.3009L120.441 25.5906ZM121.592 18.466C119.741 14.4119 116.587 10.8762 112.713 8.51137L113.231 7.65479C117.274 10.1228 120.565 13.8135 122.499 18.0479L121.592 18.466Z" fill="#4E9BCD"/>
</g>
<path d="M193.992 27.0581L197.117 16.2899H199.656L195.798 29.2337H192.186L188.328 16.2899H190.867L193.992 27.0581ZM206.72 29.2091H204.779L204.606 28.5929C203.769 29.1358 202.793 29.4248 201.796 29.4251C200.07 29.4251 199.336 28.2419 199.336 26.6147C199.336 24.6917 200.168 23.9579 202.091 23.9579H204.359V22.9655C204.359 21.9179 204.069 21.5477 202.559 21.5477C201.678 21.5567 200.801 21.6539 199.939 21.8375L199.649 20.0375C200.705 19.7461 201.796 19.5968 202.891 19.5935C205.861 19.5935 206.731 20.6411 206.731 23.0135L206.72 29.2091ZM204.353 25.6403H202.603C201.827 25.6403 201.611 25.8563 201.611 26.5703C201.611 27.2843 201.827 27.5195 202.56 27.5195C203.188 27.5117 203.802 27.3437 204.348 27.0323L204.353 25.6403ZM210.443 19.7603V26.3555C210.443 26.8607 210.659 27.1139 211.202 27.1139C212.068 27.0163 212.907 26.7459 213.667 26.3189V19.7609H216.034V29.2097H214.234L213.994 28.3901C212.823 28.9849 211.54 29.3293 210.228 29.4011C208.656 29.4011 208.096 28.2971 208.096 26.6087V19.7663L210.443 19.7603ZM217.292 29.2031V15.8951L219.659 15.5687V29.2091L217.292 29.2031ZM226.721 29.0111C226.053 29.2456 225.351 29.3704 224.644 29.3807C222.918 29.3807 222.043 28.5671 222.043 26.8787V21.6149H220.625V19.7657H222.043V17.4179L224.403 17.0849V19.7669H226.825L226.677 21.6161H224.397V26.5469C224.382 26.6613 224.394 26.7777 224.432 26.8867C224.47 26.9958 224.532 27.0945 224.615 27.1752C224.697 27.2559 224.797 27.3162 224.907 27.3515C225.017 27.3868 225.134 27.396 225.248 27.3785C225.649 27.3673 226.047 27.3031 226.431 27.1877L226.721 29.0111ZM162.176 9.0791L175.556 35.9207L189.017 9.0791H162.176ZM177.141 14.4671H178.698V16.0199H177.141V14.4671ZM174.041 20.7089H172.484V19.1399H174.041V20.7089ZM174.041 18.3689H172.484V16.7999H174.041V18.3689ZM174.041 16.0289H172.484V14.4599H174.041V16.0289ZM176.392 23.0129H174.817V21.4679H176.392V23.0129ZM176.392 20.6729H174.817V19.1399H176.392V20.6729ZM176.392 18.3329H174.817V16.7999H176.392V18.3329ZM176.392 15.9887H174.817V14.4599H176.392V15.9887ZM177.158 16.7657H178.721V18.3227H177.146L177.158 16.7657ZM177.158 20.6561V19.1399H178.721V20.6969L177.158 20.6561Z" fill="white"/>
<path d="M331.796 14.8845C329.508 14.319 327.18 15.2557 325.976 17.223C324.787 19.173 325.017 21.708 326.531 23.3917C328.134 25.1752 330.558 25.6642 332.736 24.6495C332.946 24.552 333.121 24.336 333.396 24.4297C333.453 25.5502 333.306 26.1667 332.826 26.7922C331.518 28.5037 329.103 28.3275 327.876 26.4285C327.393 25.683 326.841 25.4812 326.226 25.8232C325.573 26.187 325.451 26.8282 325.902 27.6105C326.547 28.7355 327.494 29.502 328.701 29.9595L329.209 30.162C329.58 30.306 330.723 30.342 331.252 30.237C331.576 30.1792 331.702 30.1072 331.926 30.0457C334.131 29.3857 335.676 27.4432 335.73 25.1422L335.727 19.7482C335.685 18.6209 335.279 17.5372 334.571 16.6593C333.863 15.7813 332.889 15.1561 331.796 14.877V14.8845ZM327.508 19.947C327.504 18.333 328.845 17.0107 330.48 17.0175C332.084 17.025 333.395 18.3075 333.42 19.893C333.446 21.5107 332.12 22.8585 330.495 22.869C328.856 22.8765 327.516 21.564 327.508 19.947ZM346.933 18.3945C346.14 15.9442 343.708 14.388 341.205 14.7555C338.607 15.1305 336.693 17.2845 336.647 19.8682C336.603 22.401 338.427 24.5992 340.982 25.0882C343.457 25.5637 345.99 24.1042 346.869 21.7087C346.956 21.4672 347.165 20.9587 347.19 20.5882C347.226 20.0107 347.219 19.4962 347.126 19.0642C347.054 18.7507 347.004 18.6105 346.935 18.3937L346.933 18.3945ZM341.886 22.8697C340.282 22.8622 338.974 21.5797 338.946 19.9875C338.917 18.3697 340.243 17.0295 341.882 17.022C343.521 17.0145 344.869 18.327 344.869 19.944C344.869 21.561 343.529 22.8742 341.886 22.8697ZM318.083 18.8197C317.394 15.7785 314.418 14.0647 311.472 14.9857C308.509 15.9157 306.975 19.1295 308.142 21.9645C309.27 24.7095 312.685 25.9672 315.377 24.6232C315.694 24.4732 315.932 24.2332 316.238 24.7095C316.508 25.1272 316.988 25.2645 317.492 25.059C317.989 24.8565 318.204 24.4792 318.201 23.9565V21.528C318.155 20.7495 318.299 19.773 318.081 18.8182L318.083 18.8197ZM312.992 22.8697C311.312 22.8472 309.994 21.54 310.041 19.9447C310.084 18.3592 311.467 17.0302 313.063 17.037C314.67 17.0445 315.945 18.3915 315.924 20.0565C315.906 21.696 314.659 22.8915 312.999 22.8705L312.992 22.8697Z" fill="white"/>
<path d="M325.557 15.7815C325.499 15.0285 324.866 14.643 323.882 14.751C321.521 15.0135 319.684 16.701 319.234 19.0388C319.061 19.9388 319.194 20.8583 319.154 21.6151V23.7555C319.162 24.6668 319.565 25.1716 320.285 25.1791C321.005 25.1866 321.446 24.6781 321.455 23.781L321.463 19.9726C321.485 18.3871 322.583 17.1263 324.151 17.0611C325.081 17.0213 325.603 16.4055 325.556 15.7823L325.557 15.7815Z" fill="white"/>
<path d="M286.764 32.6063C286.767 32.6063 286.769 32.6138 286.769 32.6318L286.777 32.9813L286.829 32.7098C286.814 32.5388 286.681 32.6258 286.754 32.6063H286.764Z" fill="#FEFEFE"/>
<path d="M293.405 34.8809L293.48 33.6614C293.593 32.7749 293.486 31.8614 293.718 30.9929C293.833 30.5399 293.466 30.0081 293.943 29.6106L293.825 29.2244C293.694 28.9994 293.761 28.7939 293.84 28.5809C293.833 27.8031 293.84 27.0254 293.98 26.2559L294.109 23.0474C291.812 24.0884 289.658 22.6199 289.292 20.8574C289.052 19.6994 289.179 18.6051 290.084 17.7224C290.234 17.5739 290.363 17.4036 290.504 17.2409C290.873 15.0284 290.616 12.9974 288.725 11.4134C289.007 11.2514 289.262 11.3436 289.491 11.3009C287.172 10.7159 284.358 12.3021 283.427 14.7246C283.147 15.4521 282.996 16.2021 283.052 16.9746C285.351 15.9096 287.413 17.1816 287.981 19.1196C288.571 21.1446 287.006 23.2709 284.909 23.3016C284.3 23.3091 283.721 23.2094 283.144 23.0391L283.273 26.3796C283.354 27.1101 283.441 27.8369 283.404 28.5726L283.421 29.0931L283.404 29.4404C283.575 30.1394 283.611 30.8654 283.664 31.5749C283.659 31.5564 283.656 31.5376 283.653 31.5186L283.664 31.5749L283.841 35.2274C283.877 35.7299 283.695 35.9826 283.231 36.1124L281.6 36.6246C282.327 36.7251 283.043 36.7371 283.76 36.7199C284.534 36.7034 284.887 36.3599 284.963 35.5896L285.098 34.1211L285.248 31.4586H285.356V33.9906L285.401 35.1434C285.514 36.9306 285.566 36.9194 283.784 37.2809C283.742 37.2884 283.706 37.3146 283.667 37.3311L283.985 37.5434C284.019 37.5509 284.047 37.5659 284.063 37.5959H285.336C286.1 37.5231 286.461 37.1144 286.517 36.3569L286.643 34.8966C286.568 34.2501 286.673 33.6156 286.793 32.9804L286.785 32.6309C286.785 32.6144 286.78 32.6031 286.78 32.6054C286.699 32.6249 286.832 32.5304 286.855 32.7089L286.9 32.4824V35.4074L286.925 36.4371C286.94 37.6821 286.861 37.7871 285.675 38.1494L284.682 38.4149C284.447 38.4959 284.148 38.4509 283.927 38.7284C284.892 38.6924 285.796 38.8011 286.702 38.6556C287.63 38.5056 287.999 38.1306 288.19 37.2306C288.329 36.5646 288.389 35.8791 288.643 35.2056C288.679 35.2784 288.707 35.3121 288.716 35.3511L289.096 37.2411C289.268 38.1224 289.621 38.4974 290.522 38.6541C291.449 38.8139 292.385 38.7044 293.345 38.7269C293.207 38.4921 292.992 38.5319 292.82 38.4809L291.032 37.9581C290.607 37.8096 290.302 37.5381 290.308 37.0154L290.313 32.7179H290.486L290.667 35.4089C290.776 37.4849 291.023 37.7114 293.106 37.5966C293.224 37.4016 293.511 37.5546 293.621 37.3446C293.12 37.3416 292.683 37.1009 292.226 36.9471C291.968 36.8601 291.823 36.6284 291.828 36.3426L291.993 31.9281L292.304 35.6234C292.349 36.1994 292.609 36.6509 293.213 36.6884C294.038 36.7446 294.849 36.7034 295.669 36.7034C295.235 36.4784 294.791 36.3561 294.349 36.2159C293.348 35.8934 293.353 35.8911 293.445 34.8659L293.405 34.8809ZM287.105 13.8921C287.104 14.089 287.025 14.2773 286.886 14.4165C286.747 14.5557 286.558 14.6346 286.361 14.6361C285.922 14.6436 285.592 14.3924 285.584 13.8224C285.631 13.4084 285.863 13.1249 286.356 13.1144C286.879 13.1069 287.106 13.4594 287.106 13.8921H287.105ZM290.468 26.1284C290.471 27.2534 289.603 28.2486 288.613 28.2464C287.678 28.2434 286.724 27.1416 286.758 26.1014L286.586 25.0514C287.261 25.5074 287.816 25.9739 288.569 25.9911C289.339 26.0061 289.942 25.6109 290.572 25.1489C290.707 25.5179 290.368 25.8066 290.468 26.1276L290.468 26.1284Z" fill="#FE733E"/>
<path d="M283.389 28.578L283.227 28.5135C282.461 28.2 281.798 27.7185 281.182 27.1845C278.961 25.2645 277.495 22.8623 277.132 19.947C276.729 16.635 277.47 13.5773 279.681 10.9508C281.697 8.55754 284.267 7.16104 287.337 6.84004C290.747 6.48454 293.809 7.43854 296.389 9.79504C298.54 11.7585 299.796 14.1923 300.118 17.055C300.393 19.4925 299.953 21.855 298.693 23.9873C297.555 25.9313 296.038 27.5093 293.988 28.5083L293.82 28.5893C293.742 28.8015 293.671 29.0145 293.805 29.2328C293.852 29.1908 293.895 29.1375 293.95 29.1068C297.048 27.4673 299.196 25.0313 300.2 21.6405C300.287 21.3525 300.421 21.21 300.743 21.243C301.179 21.288 301.298 20.997 301.298 20.6333L301.301 16.4483C301.301 16.1483 301.228 15.8183 300.926 15.7853C300.356 15.7103 300.285 15.3015 300.171 14.8958C299.499 12.5348 298.207 10.5713 296.288 9.06304C292.343 5.96554 288.013 5.40679 283.463 7.49929C280.086 9.05179 277.935 11.7458 276.962 15.3518C276.9 15.5753 276.928 15.8415 276.548 15.7628C276.005 15.6503 275.801 15.9698 275.798 16.4513L275.795 20.6363C275.795 21.1013 276.03 21.3465 276.47 21.2378C276.881 21.1373 276.98 21.3413 277.07 21.6548C277.433 22.9807 278.041 24.2271 278.862 25.3298C280.065 26.961 281.531 28.2698 283.394 29.1038L283.374 28.581L283.389 28.578Z" fill="#B5D2F3"/>
<path d="M283.384 29.4451C282.97 30.6061 281.868 30.5701 280.932 30.8701C281.637 31.0516 282.353 31.2616 283.058 31.1416C283.478 31.0688 283.559 31.2196 283.62 31.4686L283.635 31.5271L283.647 31.5833C283.594 30.8633 283.557 30.1486 283.386 29.4458L283.384 29.4451Z" fill="#FE684B"/>
<path d="M293.71 30.9953C294.605 31.4003 295.45 30.9923 296.314 30.8753C295.47 30.5175 294.376 30.7028 293.931 29.6138C293.458 30.0113 293.824 30.5415 293.71 30.9953Z" fill="#FE6446"/>
<path d="M286.87 32.4824L286.825 32.7089L286.773 32.9804C286.653 33.6157 286.548 34.2502 286.623 34.8967C286.833 35.0054 286.679 35.2942 286.872 35.4112V32.4824H286.87Z" fill="#FED6C8"/>
<path d="M285.228 31.4595L285.078 34.122L285.338 33.9907V31.4587H285.23L285.228 31.4595Z" fill="#FEEBE3"/>
<path d="M282.598 37.5974H284.041L283.963 37.5449L283.645 37.3327C283.33 37.3162 283.032 37.3852 282.598 37.5982L282.598 37.5974Z" fill="#FE9166"/>
<path d="M293.064 37.5975H294.468C294.183 37.4325 293.904 37.2922 293.579 37.3455C293.47 37.5577 293.179 37.4017 293.064 37.5975Z" fill="#FE8F64"/>
<path d="M293.997 28.5021C296.048 27.5061 297.561 25.9281 298.703 23.9811C299.955 21.8414 300.396 19.4856 300.128 17.0489C299.805 14.1839 298.553 11.7509 296.399 9.78888C293.819 7.43763 290.757 6.48888 287.346 6.83988C284.28 7.15863 281.706 8.56488 279.696 10.9521C277.484 13.5786 276.745 16.6371 277.148 19.9484C277.503 22.8734 278.969 25.2734 281.198 27.1859C281.816 27.7199 282.479 28.2044 283.243 28.5149C283.296 28.5382 283.35 28.5597 283.405 28.5794C283.441 27.8444 283.355 27.1169 283.274 26.3864L283.106 26.2664C282.538 25.8554 282.051 25.3491 281.561 24.8511C281.412 24.7011 281.228 24.5714 281.228 24.3261C280.898 24.5639 280.66 24.3989 280.467 24.1356C279.393 22.6701 278.743 21.0441 278.657 19.2156C278.579 17.5986 278.732 16.0266 279.404 14.5131C280.254 12.5849 281.589 11.1224 283.367 10.0319C283.669 9.84738 283.842 10.0124 284.052 10.1496C284.256 10.1301 284.439 10.0596 284.577 9.89238L284.552 9.83388C284.372 9.45588 284.364 9.02838 284.796 8.92788C285.227 8.82738 285.475 9.17688 285.471 9.63288C288.707 8.57013 291.718 9.00063 294.433 11.0729C296.464 12.6224 297.628 14.7014 297.983 17.2356C298.442 20.4944 297.339 23.1966 295.068 25.4826C294.799 25.7576 294.492 25.9914 294.156 26.1764C294.097 26.2065 294.039 26.2355 293.979 26.2634C293.84 27.0329 293.831 27.8106 293.84 28.5884L294.002 28.5074L293.997 28.5021Z" fill="#E2F5FC"/>
<path d="M295.057 25.4813C297.326 23.1961 298.429 20.4938 297.973 17.2343C297.617 14.6971 296.454 12.6188 294.423 11.0716C291.706 8.99855 288.693 8.5703 285.46 9.63155C285.455 9.63455 285.449 9.63905 285.444 9.6428C285.189 9.8048 284.991 10.1551 284.624 9.9368C284.602 9.9218 284.582 9.9113 284.56 9.8948C284.428 10.0628 284.249 10.1326 284.035 10.1521C284.027 10.1858 284.015 10.2166 284.005 10.2496C283.78 10.9021 283.076 11.0723 282.61 11.4646C281.335 12.5251 280.402 13.7948 279.85 15.3331C278.96 17.8118 279.142 20.2396 280.333 22.5841C280.526 22.9643 280.764 23.3251 281.019 23.6693C281.169 23.8763 281.218 24.0833 281.199 24.3218C281.199 24.5738 281.383 24.7043 281.532 24.8558C282.024 25.3538 282.508 25.8608 283.077 26.2711L283.245 26.3911L283.116 23.0506C282.142 22.4131 281.432 21.6016 281.316 20.3933C281.162 18.9023 281.788 17.7998 283.009 16.9973C283.014 16.9943 283.02 16.9898 283.025 16.9861C282.978 16.2031 283.129 15.4531 283.408 14.7361C284.339 12.3166 287.153 10.7273 289.472 11.3086C291.019 11.5606 292.285 12.2626 293.19 13.5511C293.914 14.5831 294.289 15.7216 294.21 16.9921C295.083 17.6551 295.788 18.4321 295.903 19.5826C296.056 21.1298 295.396 22.2601 294.103 23.0476L293.965 26.2651C294.026 26.2373 294.085 26.2088 294.141 26.1781C294.481 25.9944 294.79 25.7594 295.058 25.4813H295.057Z" fill="#CDECF6"/>
<path d="M291.289 16.8601C292.249 16.3876 293.179 16.6351 294.106 16.9471L294.209 16.9808C294.287 15.7081 293.913 14.5696 293.189 13.5398C292.283 12.2498 291.019 11.5478 289.48 11.2988C289.242 11.3438 288.988 11.2486 288.705 11.4113C290.595 12.9863 290.856 15.0263 290.484 17.2388L291.29 16.8608L291.289 16.8601Z" fill="#FE6B3C"/>
<path d="M295.906 19.5735C295.791 18.4237 295.086 17.646 294.213 16.983L294.11 16.9492C293.181 16.644 292.252 16.3897 291.293 16.8622L290.663 17.1622L290.49 17.2432L290.07 17.7247C289.164 18.6097 289.038 19.7025 289.278 20.8597C289.653 22.6252 291.798 24.0937 294.087 23.0475C295.4 22.2502 296.062 21.117 295.905 19.5727L295.906 19.5735ZM292.485 22.665C292.135 22.6647 291.789 22.5946 291.466 22.459C291.144 22.3234 290.852 22.125 290.607 21.8752C290.362 21.6254 290.17 21.3294 290.041 21.0044C289.911 20.6794 289.848 20.3319 289.855 19.9822C289.87 18.5137 291.07 17.3572 292.549 17.361C294.037 17.3722 295.176 18.5445 295.164 20.049C295.153 21.543 293.989 22.6785 292.485 22.6642V22.665Z" fill="#FE6142"/>
<path d="M283.014 16.9912C281.795 17.7937 281.168 18.8962 281.322 20.3872C281.445 21.5872 282.156 22.4069 283.123 23.0422C283.705 23.2147 284.281 23.3167 284.893 23.3077C286.98 23.2777 288.555 21.1454 287.964 19.1257C287.397 17.1869 285.339 15.9142 283.035 16.9807C283.024 16.9837 283.019 16.9882 283.013 16.9919L283.014 16.9912ZM284.682 22.6642C283.157 22.6694 281.976 21.5002 281.982 19.9844C281.985 18.4964 283.146 17.3444 284.642 17.3354C286.155 17.3279 287.364 18.5189 287.358 20.0069C287.353 21.4694 286.153 22.6589 284.682 22.6642Z" fill="#FE6143"/>
<path d="M287.109 26.3461C287.006 26.2426 286.929 26.1023 286.757 26.1001C286.723 27.1411 287.674 28.2428 288.611 28.2451C289.604 28.2481 290.469 27.2603 290.466 26.1271C290.091 26.3198 289.853 26.7173 289.416 26.8351C288.557 27.0698 287.768 27.0113 287.102 26.3453L287.109 26.3461Z" fill="#070909"/>
<path d="M290.57 25.1475C289.94 25.6088 289.34 26.0025 288.568 25.9898C287.812 25.9748 287.253 25.506 286.584 25.05L286.756 26.1C286.929 26.1053 287.005 26.25 287.109 26.346C287.772 27.012 288.564 27.0705 289.423 26.8358C289.853 26.718 290.098 26.3235 290.473 26.1278C290.372 25.8053 290.71 25.518 290.576 25.149L290.57 25.1475Z" fill="#FDFCFB"/>
<path d="M286.355 13.1099C285.86 13.1174 285.627 13.4009 285.582 13.8179C285.59 14.3879 285.92 14.6376 286.36 14.6316C286.557 14.6301 286.745 14.5512 286.884 14.412C287.023 14.2728 287.102 14.0845 287.104 13.8876C287.111 13.4511 286.878 13.0986 286.355 13.1099Z" fill="#FEA777"/>
<path d="M281.203 24.3181C281.223 24.0804 281.175 23.8734 281.023 23.6656C280.771 23.3206 280.531 22.9606 280.338 22.5804C279.138 20.2359 278.961 17.8081 279.854 15.3294C280.409 13.7919 281.348 12.5206 282.614 11.4609C283.081 11.0694 283.778 10.9014 284.009 10.2459L284.039 10.1484C283.829 10.0111 283.664 9.8461 283.353 10.0306C281.568 11.1219 280.241 12.5904 279.375 14.5119C278.696 16.0254 278.55 17.5974 278.628 19.2144C278.718 21.0414 279.363 22.6689 280.438 24.1344C280.631 24.3969 280.872 24.5619 281.199 24.3249L281.203 24.3181Z" fill="#FDFEFE"/>
<path d="M285.44 9.64189C285.445 9.63889 285.451 9.63439 285.457 9.63064C285.451 9.17464 285.208 8.82214 284.782 8.92564C284.356 9.02914 284.359 9.45064 284.538 9.83164L284.563 9.89014C284.584 9.90546 284.605 9.91949 284.628 9.93214C285.003 10.1534 285.193 9.80089 285.448 9.64114L285.44 9.64189Z" fill="#FBFDFE"/>
<path d="M295.165 20.0512C295.176 18.549 294.038 17.3767 292.55 17.3632C291.067 17.352 289.87 18.516 289.856 19.9845C289.841 21.4725 291 22.653 292.485 22.6672C293.99 22.6785 295.154 21.5415 295.165 20.0512ZM292.616 20.3422C292.114 20.3497 291.819 20.0647 291.774 19.5697C291.732 19.1085 292.146 18.6697 292.605 18.7072C293.097 18.7432 293.375 19.032 293.433 19.5472C293.358 20.0062 293.131 20.3332 292.608 20.3422H292.616ZM284.635 17.3377C283.139 17.3452 281.98 18.4987 281.975 19.9867C281.972 21.5032 283.15 22.6717 284.675 22.6665C286.146 22.6612 287.346 21.4717 287.352 20.0115C287.355 18.5205 286.146 17.3287 284.636 17.337L284.635 17.3377ZM284.638 20.3422C284.14 20.3475 283.841 20.0625 283.802 19.5622C283.766 19.101 284.182 18.6727 284.644 18.7117C285.131 18.7537 285.416 19.0365 285.469 19.5517C285.407 20.0242 285.15 20.3377 284.646 20.3437L284.638 20.3422Z" fill="#FEFEFE"/>
<path d="M292.605 18.7086C292.146 18.6749 291.732 19.1061 291.774 19.5711C291.819 20.0691 292.112 20.3511 292.617 20.3436C293.129 20.3361 293.367 20.0076 293.442 19.5486C293.383 19.0341 293.106 18.7461 292.614 18.7086H292.605Z" fill="#090B0B"/>
<path d="M284.643 18.7124C284.182 18.6734 283.766 19.1009 283.801 19.5629C283.84 20.0639 284.138 20.3489 284.637 20.3429C285.136 20.3369 285.398 20.0242 285.46 19.5509C285.413 19.0259 285.127 18.7507 284.635 18.7109L284.643 18.7124Z" fill="#090C0C"/>
<path d="M405.967 31.9216C405.967 31.9216 404.642 32.7279 406.889 32.9589C409.589 33.3039 411.037 33.2469 414.032 32.6709C414.032 32.6709 414.839 33.1884 415.934 33.5934C409.193 36.4734 400.668 33.4209 405.968 31.9231L405.967 31.9216ZM405.103 28.1776C405.103 28.1776 403.663 29.2726 405.909 29.5029C408.847 29.7909 411.159 29.8479 415.127 29.0424C415.127 29.0424 415.644 29.6184 416.509 29.9064C408.386 32.3259 399.284 30.1359 405.103 28.1776ZM421.003 34.7446C421.003 34.7446 421.982 35.5509 419.908 36.1846C416.048 37.3366 403.721 37.6824 400.264 36.1846C399.054 35.6671 401.359 34.9096 402.107 34.8024C402.857 34.6299 403.259 34.6299 403.259 34.6299C401.935 33.7074 394.445 36.5311 399.457 37.3299C413.225 39.5761 424.573 36.3504 421.001 34.7379L421.003 34.7446ZM406.6 24.2604C406.6 24.2604 400.321 25.7581 404.353 26.2764C406.081 26.5066 409.48 26.4489 412.648 26.2186C415.24 25.9884 417.833 25.5271 417.833 25.5271C417.833 25.5271 416.91 25.9306 416.277 26.3334C409.883 28.0036 397.613 27.2559 401.127 25.5271C404.123 24.0871 406.6 24.2521 406.6 24.2521V24.2604ZM417.833 30.5394C424.285 27.1981 421.289 23.9724 419.216 24.3759C418.698 24.4914 418.466 24.6061 418.466 24.6061C418.466 24.6061 418.638 24.2611 419.042 24.1456C423.131 22.7056 426.358 28.4656 417.716 30.7126C417.716 30.7126 417.774 30.6549 417.832 30.5401L417.833 30.5394ZM407.234 39.6406C413.456 40.0441 422.962 39.4104 423.191 36.4726C423.191 36.4726 422.731 37.6246 418.064 38.4886C412.765 39.4681 406.198 39.3526 402.337 38.7189C402.337 38.7189 403.143 39.4096 407.234 39.6406Z" fill="#4E7896"/>
<path d="M413.916 5.25C413.916 5.25 417.488 8.88 410.517 14.352C404.93 18.7875 409.242 21.3225 410.517 24.2025C407.234 21.2648 404.872 18.6728 406.485 16.2525C408.847 12.681 415.356 10.953 413.916 5.25ZM412.073 21.783C413.743 23.6843 411.612 25.413 411.612 25.413C411.612 25.413 415.875 23.223 413.916 20.5155C412.131 17.9235 410.748 16.656 418.236 12.3353C418.236 12.3353 406.426 15.273 412.072 21.7823L412.073 21.783Z" fill="#F58219"/>
<path d="M448.988 33.6215V24.8638C448.988 22.6288 447.737 21.1108 444.61 21.1108C442.823 21.1108 441.302 21.5578 439.963 22.0933L440.41 23.702C441.392 23.3443 442.645 22.9872 443.984 22.9872C445.682 22.9872 446.486 23.702 446.486 25.1322V26.2948H445.6C441.31 26.2948 439.345 27.9035 439.345 30.4948C439.345 32.6397 440.685 33.8908 443.098 33.8908C444.617 33.8908 445.779 33.176 446.851 32.282L447.029 33.6222H448.994L448.988 33.6215ZM446.485 30.7625C445.592 31.5665 444.608 32.0135 443.714 32.0135C442.552 32.0135 441.838 31.2987 441.838 30.0485C441.838 28.7982 442.553 27.9035 445.412 27.9035H446.485V30.7633V30.7625ZM457.387 33.6222H454.259L450.507 21.38H453.188L455.512 28.8875L456.048 31.1225C457.211 27.905 458.103 24.599 458.461 21.3823H461.141C460.427 25.4038 459.176 29.7823 457.388 33.6245L457.387 33.6222ZM471.863 33.6222V24.8638C471.863 22.6288 470.612 21.1108 467.483 21.1108C465.696 21.1108 464.177 21.5578 462.836 22.0933L463.194 23.702C464.267 23.3443 465.518 22.9872 466.858 22.9872C468.556 22.9872 469.36 23.702 469.36 25.1322V26.2948H468.467C464.177 26.2948 462.212 27.9035 462.212 30.4948C462.212 32.6397 463.463 33.8908 465.876 33.8908C467.485 33.8908 468.647 33.176 469.718 32.282L469.897 33.6222H471.862H471.863ZM469.361 30.7625C468.469 31.5665 467.485 32.0135 466.591 32.0135C465.428 32.0135 464.714 31.2987 464.714 30.0485C464.714 28.7982 465.429 27.9035 468.289 27.9035H469.361V30.7633V30.7625ZM436.565 35.6772C435.851 36.7498 434.778 37.5537 433.438 38.0007L432.275 36.5713C433.169 36.035 434.063 35.231 434.42 34.5163C434.778 33.8907 434.867 32.9968 434.867 30.9418V17H437.549V30.7625C437.549 33.533 437.279 34.6047 436.565 35.6772Z" fill="white"/>
</g>
<defs>
<clipPath id="clip0_151_4173">
<rect width="122" height="30" fill="white" transform="translate(0.5 7.5)"/>
</clipPath>
</defs>
</svg>
