<svg width="97" height="48" viewBox="0 0 97 48" fill="none" xmlns="http://www.w3.org/2000/svg">
<path fill-rule="evenodd" clip-rule="evenodd" d="M66.5586 16.8512H64.6386L64.645 31.1488H72.4154V29.3888H66.5634L66.5586 16.8512ZM79.8146 28.6384C79.5069 28.9584 79.1373 29.2124 78.7283 29.385C78.3192 29.5576 77.8794 29.6452 77.4354 29.6424C75.973 29.6424 75.3834 28.9224 75.3834 27.9832C75.3834 26.5648 76.3658 25.8872 78.461 25.8872C78.861 25.8872 79.4866 25.9312 79.8146 25.996V28.6384ZM77.8274 19.9728C76.3372 19.9704 74.8928 20.4882 73.7434 21.4368L74.4234 22.6128C75.209 22.1544 76.1698 21.696 77.545 21.696C79.117 21.696 79.8154 22.496 79.8154 23.856V24.5544C79.5098 24.4888 78.877 24.4448 78.4842 24.4448C75.1226 24.4448 73.4202 25.6232 73.4202 28.0904C73.4202 30.2952 74.7738 31.408 76.825 31.408C78.2074 31.408 79.5314 30.768 79.9898 29.7488L80.3394 31.1456H81.693V23.8336C81.693 21.52 80.689 19.9696 77.829 19.9696L77.8274 19.9728ZM87.889 29.7088C87.169 29.7088 86.5354 29.6288 86.0554 29.4032V22.7896C86.7114 22.244 87.5178 21.8512 88.5354 21.8512C90.3914 21.8512 91.1114 23.1608 91.1114 25.2784C91.1114 28.2904 89.9546 29.7104 87.881 29.7104M88.681 19.9744C86.9642 19.9744 86.041 21.1424 86.041 21.1424V19.296L86.0346 16.8512H84.1578L84.1634 30.8C85.1018 31.2 86.3898 31.4112 87.7874 31.4112C91.3674 31.4112 93.0914 29.1192 93.0914 25.1688C93.0914 22.0472 91.4978 19.9736 88.6818 19.9736M45.6778 18.4C47.3802 18.4 48.4714 18.96 49.1922 19.536L50.0178 18.1064C48.893 17.12 47.3794 16.5896 45.765 16.5896C41.6834 16.5896 38.8242 19.0696 38.8242 24.0984C38.8242 29.3592 41.909 31.4104 45.4378 31.4104C47.1978 31.4104 48.7122 30.996 49.6938 30.5808L49.6538 24.96V23.2H44.4154V24.96H47.7634L47.8034 29.2272C47.3666 29.4456 46.6034 29.6272 45.577 29.6272C42.7394 29.6272 40.841 27.8432 40.841 24.0832C40.841 20.2632 42.8058 18.408 45.6866 18.408M59.1874 16.8512H57.3098L57.3162 19.2512V27.5456C57.3162 29.8592 58.3202 31.4096 61.1802 31.4096C61.5682 31.4096 61.9553 31.3748 62.337 31.3056V29.62C62.0482 29.664 61.7564 29.686 61.4642 29.6856C59.8922 29.6856 59.1938 28.8856 59.1938 27.5256V21.8056H62.3378V20.2336H59.1938L59.1874 16.8512ZM52.5474 31.1488H54.425V20.2344H52.5474V31.1488ZM52.5474 18.728H54.425V16.8504H52.5474V18.728Z" fill="#8C929D"/>
<path fill-rule="evenodd" clip-rule="evenodd" d="M20.461 38.5552L26.2794 20.6472H14.6426L20.461 38.5552Z" fill="#E24329"/>
<path fill-rule="evenodd" clip-rule="evenodd" d="M20.4619 38.5543L14.6435 20.6399H6.48828L20.4619 38.5543Z" fill="#FC6D26"/>
<path fill-rule="evenodd" clip-rule="evenodd" d="M6.48707 20.6399L4.72707 26.0823C4.56547 26.5783 4.74307 27.1223 5.16467 27.4295L20.4687 38.5495L6.48707 20.6399Z" fill="#FCA326"/>
<path fill-rule="evenodd" clip-rule="evenodd" d="M6.48828 20.64H14.6435L11.1395 9.85439C10.9595 9.29919 10.1739 9.29919 9.99388 9.85439L6.48828 20.64Z" fill="#E24329"/>
<path fill-rule="evenodd" clip-rule="evenodd" d="M20.4609 38.5545L26.2793 20.6465H34.4345L20.4609 38.5545Z" fill="#FC6D26"/>
<path fill-rule="evenodd" clip-rule="evenodd" d="M34.4347 20.6399L36.1947 26.0823C36.3563 26.5783 36.1787 27.1223 35.7571 27.4295L20.4531 38.5495L34.4347 20.6399Z" fill="#FCA326"/>
<path fill-rule="evenodd" clip-rule="evenodd" d="M34.4345 20.64H26.2793L29.7833 9.85439C29.9633 9.29919 30.7489 9.29919 30.9289 9.85439L34.4345 20.64Z" fill="#E24329"/>
</svg>
