<svg width="136" height="32" viewBox="0 0 136 32" fill="none" xmlns="http://www.w3.org/2000/svg">
<path d="M30.3857 9.36868C30.343 9.37008 30.3008 9.35947 30.2637 9.33802C30.2266 9.31658 30.1962 9.28515 30.1757 9.24722L26.5041 2.80517C26.4818 2.76788 26.4503 2.73708 26.4127 2.71579C26.3751 2.69451 26.3326 2.68345 26.2895 2.68372H11.3126C11.2699 2.68231 11.2277 2.69292 11.1906 2.71437C11.1536 2.73581 11.1231 2.76725 11.1026 2.80517L7.28569 9.49014L3.61184 15.9345C3.59102 15.972 3.58008 16.0142 3.58008 16.0571C3.58008 16.1001 3.59102 16.1423 3.61184 16.1798L7.28569 22.6218L11.1003 29.3138C11.1208 29.3517 11.1512 29.3832 11.1883 29.4046C11.2254 29.426 11.2676 29.4366 11.3103 29.4352H26.2895C26.3326 29.4355 26.3751 29.4245 26.4127 29.4032C26.4503 29.3819 26.4818 29.3511 26.5041 29.3138L30.178 22.8717C30.1985 22.8338 30.2289 22.8024 30.266 22.7809C30.3031 22.7595 30.3453 22.7489 30.388 22.7503H34.9595C35.0324 22.7503 35.1022 22.721 35.1537 22.6689C35.2052 22.6167 35.2341 22.546 35.2341 22.4723V9.64897C35.2341 9.57525 35.2052 9.50455 35.1537 9.45243C35.1022 9.4003 35.0324 9.37101 34.9595 9.37101H30.3857V9.36868Z" fill="#4D4D4D"/>
<mask id="mask0_139_2923" style="mask-type:luminance" maskUnits="userSpaceOnUse" x="3" y="9" width="131" height="14">
<path d="M133.168 22.7387H130.055C130.034 22.7386 130.014 22.7337 129.996 22.7244C129.977 22.7151 129.961 22.7016 129.949 22.685L129.707 22.3509L129.042 21.447L127.228 18.9758L126.215 17.593C126.203 17.5783 126.188 17.5664 126.171 17.5583C126.153 17.5502 126.135 17.546 126.116 17.546C126.097 17.546 126.078 17.5502 126.061 17.5583C126.044 17.5664 126.029 17.5783 126.017 17.593L124.955 18.7889L124.835 18.9267C124.814 18.9505 124.803 18.9813 124.803 19.0131V22.5985C124.802 22.633 124.788 22.666 124.764 22.6904C124.74 22.7148 124.708 22.7287 124.673 22.7293H121.978C121.944 22.7293 121.911 22.7156 121.887 22.691C121.862 22.6665 121.849 22.6332 121.849 22.5985V9.51824C121.849 9.48355 121.862 9.45028 121.887 9.42575C121.911 9.40122 121.944 9.38744 121.978 9.38744H124.662C124.696 9.38744 124.729 9.40122 124.753 9.42575C124.778 9.45028 124.791 9.48355 124.791 9.51824V14.5331C124.789 14.561 124.797 14.5887 124.812 14.6122C124.826 14.6356 124.848 14.6537 124.874 14.6636C124.9 14.6735 124.928 14.6748 124.955 14.6673C124.981 14.6598 125.005 14.6439 125.022 14.6219L126.503 12.9869L128.707 10.56L129.741 9.42247C129.753 9.40925 129.768 9.3987 129.784 9.39147C129.8 9.38423 129.818 9.38047 129.836 9.38043H133.131C133.149 9.38042 133.166 9.38395 133.182 9.39082C133.198 9.39768 133.212 9.40773 133.224 9.42038C133.236 9.43302 133.246 9.448 133.252 9.46442C133.258 9.48083 133.261 9.49834 133.26 9.5159C133.258 9.54585 133.247 9.57438 133.228 9.59766L131.744 11.2677L129.275 14.0473L128.246 15.2152C128.228 15.238 128.218 15.2664 128.218 15.2958C128.218 15.3251 128.228 15.3535 128.246 15.3763L129.529 17.1912L130.697 18.8566L130.84 19.0598L131.723 20.3118L132.647 21.6245L133.29 22.5355C133.303 22.5564 133.31 22.5806 133.31 22.6052C133.311 22.6299 133.304 22.6542 133.291 22.6753C133.279 22.6963 133.26 22.7134 133.239 22.7246C133.217 22.7358 133.192 22.7407 133.168 22.7387ZM120.824 22.5542C120.833 22.5741 120.836 22.5958 120.834 22.6173C120.832 22.6389 120.825 22.6596 120.813 22.6778C120.802 22.696 120.786 22.711 120.767 22.7216C120.749 22.7322 120.728 22.7381 120.707 22.7387H117.85C117.824 22.7388 117.8 22.7312 117.779 22.7171C117.758 22.703 117.742 22.6828 117.732 22.6593L117.674 22.5308L116.571 19.9358C116.562 19.9122 116.545 19.8921 116.524 19.8779C116.503 19.8638 116.479 19.8563 116.453 19.8563H111.095C111.07 19.8564 111.045 19.864 111.023 19.8781C111.002 19.8921 110.985 19.9122 110.975 19.9358L110.811 20.3212L109.817 22.6569C109.806 22.6791 109.79 22.6978 109.769 22.711C109.749 22.7243 109.725 22.7314 109.701 22.7317H106.847C106.825 22.7317 106.804 22.7262 106.785 22.7157C106.766 22.7053 106.75 22.6902 106.738 22.6718C106.726 22.6535 106.719 22.6324 106.718 22.6107C106.716 22.5889 106.72 22.5671 106.729 22.5471L106.927 22.08L108.273 18.929L108.321 18.8169L108.379 18.6861L108.404 18.6207L108.852 17.5696L112.313 9.47152C112.324 9.44831 112.34 9.42851 112.361 9.41444C112.382 9.40037 112.406 9.39262 112.431 9.39211H115.11C115.136 9.39203 115.16 9.39954 115.181 9.41368C115.202 9.42783 115.218 9.44796 115.228 9.47152L117.026 13.6759L117.914 15.7571L118.909 18.0928L120.79 22.5004L120.824 22.5542ZM115.353 17.0534L115.163 16.6073L114.531 15.1124L113.901 13.6362C113.89 13.6152 113.873 13.5978 113.853 13.5856C113.833 13.5734 113.809 13.567 113.786 13.567C113.762 13.567 113.739 13.5734 113.719 13.5856C113.698 13.5978 113.682 13.6152 113.67 13.6362L112.549 16.2546L112.207 17.0534C112.199 17.0732 112.196 17.0948 112.197 17.1163C112.199 17.1377 112.206 17.1584 112.218 17.1764C112.23 17.1944 112.246 17.2093 112.264 17.2196C112.283 17.2299 112.304 17.2354 112.325 17.2356H115.235C115.256 17.2343 115.276 17.228 115.294 17.2172C115.311 17.2064 115.326 17.1915 115.337 17.1736C115.348 17.1558 115.354 17.1355 115.356 17.1146C115.357 17.0937 115.354 17.0727 115.346 17.0534H115.353ZM106.897 18.5577C106.821 18.7611 106.733 18.96 106.634 19.1533C106.305 19.7969 105.875 20.3822 105.36 20.8864C105.134 21.1113 104.893 21.3205 104.638 21.5124C103.558 22.3271 102.26 22.7927 100.913 22.8485C100.757 22.8485 100.595 22.8648 100.434 22.8648C99.0676 22.8918 97.7245 22.5073 96.575 21.76C96.1923 21.5048 95.8352 21.2122 95.5089 20.8864C95.3773 20.7556 95.2504 20.6225 95.1327 20.4847C94.0529 19.2385 93.4762 17.6266 93.5173 15.9696C93.516 15.5787 93.5445 15.1882 93.6027 14.8017L93.5427 14.713L93.6397 14.5658C93.8828 13.2212 94.5404 11.9889 95.5181 11.0458C95.8241 10.7416 96.1571 10.4664 96.5127 10.2236C97.2255 9.73527 98.0273 9.39543 98.8712 9.22393C99.3875 9.11671 99.9134 9.06427 100.44 9.06744C101.351 9.04512 102.256 9.20882 103.103 9.54874C103.949 9.88867 104.72 10.3978 105.367 11.0458C106.505 12.1492 107.205 13.6353 107.336 15.2245C107.359 15.4581 107.368 15.7104 107.368 15.9626C107.373 16.8503 107.212 17.7308 106.893 18.5577H106.897ZM104.359 15.9883C104.381 14.9255 104.02 13.8909 103.343 13.0779C103.307 13.03 103.269 12.984 103.228 12.9401C102.883 12.5379 102.455 12.2168 101.974 11.9993C101.493 11.7819 100.972 11.6733 100.445 11.6812C100.159 11.6805 99.8733 11.711 99.5935 11.7723C98.8438 11.945 98.1676 12.3539 97.662 12.9401C96.9333 13.7426 96.5296 14.7933 96.5312 15.8832V15.9883C96.5057 17.1109 96.9119 18.1996 97.6643 19.0248C97.771 19.1441 97.885 19.2565 98.0058 19.3612C98.2313 19.5639 98.4809 19.7373 98.7489 19.8774C99.2863 20.1438 99.8776 20.2799 100.476 20.2751C101.074 20.2702 101.663 20.1245 102.197 19.8493C102.538 19.6653 102.849 19.429 103.12 19.1486C103.159 19.1089 103.198 19.0692 103.235 19.0271C103.486 18.7512 103.701 18.4435 103.874 18.1115C104.203 17.4534 104.365 16.7232 104.347 15.986L104.359 15.9883ZM93.3512 20.0829H87.9743C87.9574 20.0832 87.9407 20.0801 87.925 20.0738C87.9093 20.0675 87.8951 20.0581 87.883 20.0461C87.871 20.0342 87.8614 20.0199 87.8549 20.0042C87.8484 19.9884 87.845 19.9715 87.845 19.9544V9.51824C87.8451 9.49366 87.8381 9.4696 87.825 9.4489C87.8119 9.4282 87.7932 9.41173 87.7712 9.40145C87.7542 9.39206 87.7351 9.38724 87.7158 9.38744H85.032C84.9977 9.38744 84.9648 9.40122 84.9406 9.42575C84.9163 9.45028 84.9027 9.48355 84.9027 9.51824V22.5985C84.9027 22.6332 84.9163 22.6665 84.9406 22.691C84.9648 22.7156 84.9977 22.7293 85.032 22.7293H93.3397C93.3566 22.7293 93.3734 22.726 93.3891 22.7194C93.4048 22.7128 93.419 22.7032 93.431 22.691C93.443 22.6789 93.4525 22.6645 93.459 22.6486C93.4655 22.6327 93.4689 22.6157 93.4689 22.5985V20.2114C93.4689 20.1942 93.4655 20.1772 93.459 20.1613C93.4525 20.1455 93.443 20.131 93.431 20.1189C93.419 20.1067 93.4048 20.0971 93.3891 20.0905C93.3734 20.084 93.3566 20.0806 93.3397 20.0806L93.3512 20.0829ZM78.7573 9.10481C78.545 9.08613 78.3304 9.07912 78.1112 9.07912C77.2016 9.05929 76.2974 9.22507 75.4525 9.56658C74.6077 9.90808 73.8394 10.4183 73.1935 11.0669C72.9545 11.3037 72.7324 11.5574 72.5289 11.826C71.6216 13.0321 71.1472 14.5149 71.1835 16.0304C71.1736 16.8983 71.319 17.7609 71.6127 18.5763C71.7816 19.0373 72.0039 19.4764 72.275 19.8844C72.5292 20.2671 72.8224 20.6217 73.1497 20.9425C73.5449 21.3343 73.9868 21.6748 74.465 21.9562C74.5827 22.0239 74.6958 22.0917 74.8273 22.1547C74.915 22.1999 75.005 22.2419 75.0973 22.2809C76.0652 22.6967 77.1083 22.9028 78.1597 22.8858C78.487 22.8863 78.814 22.8628 79.1381 22.8158C79.3412 22.7877 79.5443 22.748 79.7427 22.699C80.8966 22.4068 81.9553 21.815 82.8143 20.9822C83.0012 20.8093 83.1858 20.6201 83.3658 20.4216C83.3887 20.3969 83.4014 20.3643 83.4014 20.3305C83.4014 20.2967 83.3887 20.2641 83.3658 20.2394L81.6627 18.4666C81.6484 18.4513 81.6306 18.4399 81.6109 18.4333C81.5911 18.4268 81.5701 18.4254 81.5497 18.4292C81.5199 18.436 81.4932 18.4524 81.4735 18.4759C81.0589 18.9987 80.5311 19.418 79.9309 19.7015C79.3307 19.985 78.6741 20.1251 78.012 20.1109C77.5572 20.1136 77.1056 20.0345 76.6781 19.8774C76.1638 19.6826 75.6982 19.3755 75.3143 18.9781C74.9262 18.5879 74.6311 18.1135 74.4512 17.5906C74.2772 17.0759 74.1921 16.5346 74.1996 15.9906C74.1996 14.8337 74.5412 13.8994 75.2243 13.1877C75.275 13.1363 75.3258 13.085 75.3789 13.0336C76.1486 12.3074 77.1677 11.9136 78.2197 11.9358C78.8687 11.9296 79.5105 12.0738 80.096 12.3571C80.6816 12.6405 81.1954 13.0557 81.5981 13.5708C81.61 13.5851 81.6249 13.5965 81.6416 13.6044C81.6583 13.6122 81.6766 13.6163 81.695 13.6163C81.7135 13.6163 81.7317 13.6122 81.7485 13.6044C81.7652 13.5965 81.78 13.5851 81.792 13.5708L83.4489 11.6695C83.47 11.6448 83.4816 11.6133 83.4816 11.5807C83.4816 11.5481 83.47 11.5166 83.4489 11.492C82.2522 10.1017 80.5624 9.24482 78.7458 9.10714L78.7573 9.10481ZM71.3127 10.4642L71.8135 9.5813C71.8248 9.5615 71.8308 9.53906 71.8308 9.5162C71.8309 9.49333 71.825 9.47085 71.8138 9.451C71.8026 9.43115 71.7864 9.41462 71.7669 9.40306C71.7475 9.39149 71.7253 9.3853 71.7027 9.3851H68.7973C68.7749 9.38553 68.7529 9.39177 68.7336 9.40321C68.7142 9.41466 68.698 9.43094 68.6866 9.4505L66.065 14.0169L65.9243 14.122L65.8181 14.2038C65.7952 14.1924 65.776 14.1745 65.7627 14.1524L65.7189 14.0777L65.652 13.9655L63.0627 9.4505C63.0513 9.43094 63.0351 9.41466 63.0158 9.40321C62.9964 9.39177 62.9744 9.38553 62.952 9.3851H60.0581C60.0355 9.3853 60.0134 9.39149 59.9939 9.40306C59.9744 9.41462 59.9583 9.43115 59.947 9.451C59.9358 9.47085 59.93 9.49333 59.93 9.5162C59.9301 9.53906 59.9361 9.5615 59.9473 9.5813L61.2027 11.8003L63.4712 15.8248L64.3943 17.4435C64.4059 17.4633 64.4123 17.4858 64.4127 17.5089V22.5985C64.4127 22.6332 64.4263 22.6665 64.4506 22.691C64.4748 22.7156 64.5077 22.7293 64.542 22.7293H67.2166C67.2509 22.7293 67.2837 22.7156 67.308 22.691C67.3322 22.6665 67.3458 22.6332 67.3458 22.5985V17.4996C67.3463 17.4765 67.3526 17.454 67.3643 17.4342L68.0104 16.2896L70.4658 11.9428L70.9689 11.0575L71.3012 10.4666L71.3127 10.4642ZM58.9227 20.1016H52.3966C52.3623 20.1016 52.3294 20.0878 52.3052 20.0633C52.281 20.0388 52.2673 20.0055 52.2673 19.9708V17.4598C52.2679 17.4253 52.2817 17.3924 52.3059 17.368C52.33 17.3436 52.3625 17.3296 52.3966 17.329H58.055C58.0893 17.329 58.1222 17.3153 58.1464 17.2907C58.1707 17.2662 58.1843 17.2329 58.1843 17.1982V14.9209C58.1843 14.8862 58.1707 14.8529 58.1464 14.8284C58.1222 14.8038 58.0893 14.7901 58.055 14.7901H52.3966C52.3623 14.7901 52.3294 14.7763 52.3052 14.7518C52.281 14.7272 52.2673 14.694 52.2673 14.6593V12.1717C52.2673 12.137 52.281 12.1037 52.3052 12.0792C52.3294 12.0546 52.3623 12.0409 52.3966 12.0409H58.7058C58.7401 12.0409 58.7729 12.0271 58.7972 12.0026C58.8214 11.978 58.835 11.9448 58.835 11.9101V9.51824C58.835 9.48355 58.8214 9.45028 58.7972 9.42575C58.7729 9.40122 58.7401 9.38744 58.7058 9.38744H49.452C49.4177 9.38744 49.3848 9.40122 49.3606 9.42575C49.3363 9.45028 49.3227 9.48355 49.3227 9.51824V22.5985C49.3227 22.6332 49.3363 22.6665 49.3606 22.691C49.3848 22.7156 49.4177 22.7293 49.452 22.7293H58.9135C58.9478 22.7293 58.9806 22.7156 59.0049 22.691C59.0291 22.6665 59.0427 22.6332 59.0427 22.5985V20.2324C59.0427 20.1977 59.0291 20.1644 59.0049 20.1399C58.9806 20.1154 58.9478 20.1016 58.9135 20.1016H58.9227ZM47.8066 22.365C47.4712 21.8978 47.0635 21.3193 46.5835 20.6295C46.2081 20.0985 45.7904 19.5052 45.3304 18.8496L45.2843 18.7819C44.1397 17.1531 43.3373 16.0148 42.8773 15.367C42.8596 15.344 42.8499 15.3156 42.8499 15.2864C42.8499 15.2572 42.8596 15.2288 42.8773 15.2058L44.052 13.8861L45.0189 12.7977L45.942 11.7512L47.8527 9.60233C47.8691 9.58344 47.8798 9.56018 47.8835 9.5353C47.8872 9.51042 47.8837 9.485 47.8735 9.46207C47.8633 9.43915 47.8467 9.41969 47.8259 9.40604C47.805 9.39239 47.7807 9.38512 47.7558 9.3851H44.4812C44.463 9.38496 44.4451 9.38863 44.4284 9.39586C44.4117 9.4031 44.3967 9.41375 44.3843 9.42714L42.342 11.6718L39.665 14.6196C39.648 14.6415 39.6245 14.6575 39.598 14.665C39.5714 14.6725 39.5431 14.6712 39.5173 14.6612C39.4916 14.6513 39.4696 14.6333 39.4546 14.6098C39.4397 14.5864 39.4325 14.5587 39.4343 14.5308V9.51824C39.4343 9.50117 39.4309 9.48428 39.4244 9.46854C39.4179 9.4528 39.4083 9.43853 39.3963 9.42657C39.3842 9.4146 39.37 9.40519 39.3543 9.39887C39.3386 9.39256 39.3219 9.38947 39.305 9.38978H36.6281C36.6111 9.38978 36.5943 9.39315 36.5787 9.39973C36.563 9.4063 36.5487 9.41594 36.5367 9.42808C36.5247 9.44023 36.5152 9.45465 36.5087 9.47052C36.5022 9.48639 36.4989 9.5034 36.4989 9.52058V22.6009C36.4989 22.6356 36.5125 22.6688 36.5367 22.6934C36.561 22.7179 36.5938 22.7317 36.6281 22.7317H39.312C39.3462 22.7317 39.3791 22.7179 39.4033 22.6934C39.4276 22.6688 39.4412 22.6356 39.4412 22.6009V19.0038C39.441 18.9719 39.4525 18.9411 39.4735 18.9174L40.032 18.2844L40.655 17.5836C40.6672 17.5689 40.6823 17.5571 40.6995 17.549C40.7166 17.5408 40.7353 17.5366 40.7543 17.5366C40.7732 17.5366 40.7919 17.5408 40.809 17.549C40.8262 17.5571 40.8414 17.5689 40.8535 17.5836L42.7158 20.118L44.0543 21.9398L44.592 22.6733C44.6038 22.69 44.6194 22.7036 44.6374 22.7129C44.6555 22.7223 44.6755 22.7271 44.6958 22.727H47.8135C47.8372 22.7265 47.8603 22.7196 47.8804 22.7069C47.9005 22.6942 47.9168 22.6763 47.9277 22.655C47.9385 22.6337 47.9435 22.6099 47.9421 22.586C47.9407 22.562 47.9329 22.5389 47.9197 22.5191L47.8066 22.365ZM34.962 9.36642H7.50042C7.45832 9.36671 7.41699 9.37779 7.38027 9.39862C7.34354 9.41945 7.31263 9.44935 7.29042 9.48554L7.15426 9.71911L5.47426 12.6669L3.62811 15.9229C3.60565 15.9598 3.59375 16.0022 3.59375 16.0455C3.59375 16.0889 3.60565 16.1313 3.62811 16.1682L4.03196 16.8689L7.2858 22.6242C7.30731 22.6619 7.33827 22.6932 7.37554 22.715C7.41281 22.7367 7.45509 22.7481 7.49811 22.748H34.9597C35.0315 22.7474 35.1001 22.7181 35.1507 22.6665C35.2013 22.6148 35.2297 22.5451 35.2297 22.4724V9.64904C35.2297 9.57652 35.2017 9.50687 35.1517 9.45494C35.1017 9.40301 35.0336 9.37291 34.962 9.37109V9.36642Z" fill="white"/>
</mask>
<g mask="url(#mask0_139_2923)">
<path d="M3.28516 7.31323H134.087V25.1959H3.28516V7.31323Z" fill="url(#paint0_linear_139_2923)"/>
</g>
<path d="M8.12136 15.3835L4.01829 16.89L3.61444 16.1893C3.59197 16.1524 3.58008 16.11 3.58008 16.0667C3.58008 16.0234 3.59197 15.9809 3.61444 15.944L5.46059 12.688L8.12136 15.3835Z" fill="#E1E1E1"/>
<path d="M133.17 22.7387H131.476L129.93 21.7577L132.632 21.6199L133.276 22.5308C133.289 22.5506 133.297 22.5737 133.298 22.5977C133.3 22.6216 133.295 22.6454 133.284 22.6667C133.273 22.688 133.257 22.7059 133.237 22.7186C133.216 22.7313 133.193 22.7382 133.17 22.7387Z" fill="#585858"/>
<path d="M131.475 22.7387H130.055C130.035 22.7386 130.015 22.7337 129.996 22.7244C129.978 22.7151 129.962 22.7016 129.949 22.685L129.707 22.351L129.938 21.7554L131.475 22.7387Z" fill="#585858"/>
<path d="M133.261 9.51831C133.259 9.54826 133.247 9.57679 133.229 9.60006L131.745 11.2701L131.652 10.3358L133.261 9.51831Z" fill="#696969"/>
<path d="M132.632 21.6198L129.93 21.7576L131.711 20.3071L132.632 21.6198Z" fill="#5E5E5E"/>
<path d="M133.262 9.51837L131.646 10.3336L131.921 9.3829H133.128C133.146 9.38225 133.163 9.3853 133.18 9.39187C133.197 9.39845 133.212 9.40841 133.224 9.42112C133.237 9.43383 133.246 9.44903 133.253 9.46576C133.259 9.4825 133.263 9.5004 133.262 9.51837Z" fill="#6D6D6D"/>
<path d="M131.711 20.3072L129.93 21.7577L130.827 19.0552L131.711 20.3072Z" fill="#636363"/>
<path d="M131.925 9.38501L131.65 10.3357L130.088 9.38501H131.925Z" fill="#737373"/>
<path d="M124.796 9.51825V10.8707L121.854 11.1042V9.51825C121.854 9.48356 121.867 9.4503 121.891 9.42577C121.916 9.40123 121.948 9.38745 121.983 9.38745H124.667C124.701 9.38745 124.734 9.40123 124.758 9.42577C124.782 9.4503 124.796 9.48356 124.796 9.51825ZM131.65 10.3358L128.707 10.5693L129.741 9.43183C129.753 9.41861 129.768 9.40805 129.784 9.40082C129.8 9.39358 129.818 9.38983 129.836 9.38979H130.087L131.65 10.3358Z" fill="#757575"/>
<path d="M130.827 19.0551L129.929 21.7576L129.038 21.4493L127.225 18.9781L129.516 17.1865L130.684 18.8519L130.827 19.0551Z" fill="#646464"/>
<path d="M124.798 10.8682V12.3351L121.854 11.2069V11.0995L124.798 10.8682ZM131.742 11.2723L129.273 14.0519L126.504 12.9891L128.707 10.5646L131.65 10.3357L131.742 11.2723Z" fill="#6D6D6D"/>
<path d="M129.519 17.1865L127.227 18.978L126.214 17.5952C126.202 17.5805 126.187 17.5687 126.17 17.5605C126.153 17.5524 126.134 17.5482 126.115 17.5482C126.096 17.5482 126.077 17.5524 126.06 17.5605C126.043 17.5687 126.028 17.5805 126.016 17.5952L124.954 18.7911L121.857 11.6764V11.2092L124.8 12.3374V14.533C124.798 14.5609 124.805 14.5886 124.82 14.6121C124.835 14.6355 124.857 14.6536 124.883 14.6635C124.909 14.6734 124.937 14.6747 124.963 14.6672C124.99 14.6597 125.014 14.6438 125.03 14.6218L126.512 12.9868L129.281 14.0472L128.252 15.2151C128.234 15.2379 128.224 15.2663 128.224 15.2957C128.224 15.325 128.234 15.3534 128.252 15.3762L129.519 17.1865Z" fill="#6C6C6C"/>
<path d="M129.929 21.7553L129.706 22.351L129.041 21.447L129.929 21.7553Z" fill="#606060"/>
<path d="M124.952 18.7797L124.832 18.9175C124.811 18.9412 124.8 18.972 124.8 19.0039V19.5622L121.857 17.0349V11.6626L124.952 18.7797Z" fill="#707070"/>
<path d="M120.825 22.5541C120.834 22.5741 120.837 22.5957 120.835 22.6173C120.833 22.6388 120.826 22.6596 120.815 22.6777C120.803 22.6959 120.787 22.711 120.769 22.7216C120.75 22.7322 120.729 22.738 120.708 22.7386H120.271L120.793 22.5051L120.825 22.5541ZM124.797 20.6248V22.5985C124.796 22.633 124.782 22.6659 124.758 22.6903C124.734 22.7147 124.702 22.7287 124.668 22.7293H121.979C121.945 22.7293 121.912 22.7155 121.888 22.691C121.864 22.6664 121.85 22.6332 121.85 22.5985V21.9912L124.797 20.6248Z" fill="#636363"/>
<path d="M120.793 22.4934L120.272 22.727H117.851C117.826 22.7271 117.801 22.7196 117.78 22.7054C117.759 22.6913 117.743 22.6712 117.733 22.6476L117.676 22.5191L118.913 18.0812L120.793 22.4934ZM124.8 19.569V20.6248L121.855 21.9982V17.0417L124.8 19.569Z" fill="#6D6D6D"/>
<path d="M118.913 18.0859L117.676 22.5239L116.573 19.9288C116.563 19.9053 116.547 19.8851 116.526 19.871C116.505 19.8568 116.48 19.8493 116.455 19.8494H111.095C111.069 19.8495 111.044 19.857 111.023 19.8711C111.002 19.8852 110.985 19.9053 110.975 19.9288L110.811 20.3142L108.318 18.8217L108.376 18.6909L113.118 17.2263H115.23C115.251 17.2261 115.272 17.2206 115.291 17.2103C115.309 17.2 115.325 17.1852 115.337 17.1671C115.349 17.1491 115.356 17.1284 115.357 17.107C115.359 17.0855 115.356 17.064 115.348 17.0442L115.158 16.598L117.928 15.7478L118.913 18.0859Z" fill="#767676"/>
<path d="M113.117 17.2264L108.363 18.6956L108.389 18.6302L112.529 16.2524L112.187 17.0512C112.179 17.071 112.175 17.0926 112.177 17.1141C112.179 17.1355 112.186 17.1562 112.198 17.1742C112.209 17.1922 112.225 17.207 112.244 17.2174C112.263 17.2277 112.284 17.2332 112.305 17.2334H113.103L113.117 17.2264ZM117.917 15.7572L115.157 16.6074L114.527 15.1125L117.029 13.676L117.917 15.7572Z" fill="#797979"/>
<path d="M110.81 20.3189L109.815 22.6547L108.271 18.9314L108.32 18.8193L110.81 20.3189Z" fill="#757575"/>
<path d="M117.029 13.6758L114.527 15.1123L113.902 13.6361C113.891 13.6152 113.874 13.5977 113.854 13.5855C113.833 13.5733 113.81 13.5669 113.787 13.5669C113.763 13.5669 113.74 13.5733 113.719 13.5855C113.699 13.5977 113.682 13.6152 113.671 13.6361L112.55 16.2545L108.4 18.6276L108.848 17.5766L113.427 9.40137H115.102C115.127 9.40129 115.152 9.4088 115.173 9.42294C115.194 9.43709 115.21 9.45722 115.22 9.48078L117.029 13.6758Z" fill="#7F7F7F"/>
<path d="M106.797 13.1551C107.081 13.8155 107.256 14.5185 107.316 15.2362L106.797 13.1551ZM113.441 9.38514L108.862 17.5603L112.324 9.46223C112.334 9.43902 112.35 9.41921 112.371 9.40515C112.392 9.39108 112.416 9.38333 112.441 9.38281H113.441V9.38514Z" fill="#868686"/>
<path d="M107.348 15.9767C107.356 16.8588 107.199 17.7344 106.887 18.5577L103.85 18.1069C104.185 17.4514 104.355 16.7219 104.344 15.9837C104.366 14.9209 104.005 13.8863 103.328 13.0734L104.514 10.3499C104.808 10.561 105.085 10.7953 105.343 11.0506C105.957 11.6485 106.448 12.3628 106.79 13.1528L107.309 15.2339C107.337 15.4792 107.348 15.7245 107.348 15.9767Z" fill="#8A8A8A"/>
<path d="M103.979 19.833L106.632 19.1533C106.303 19.7969 105.873 20.3822 105.359 20.8864L103.979 19.833ZM109.812 22.6616C109.802 22.6837 109.786 22.7025 109.765 22.7157C109.745 22.7289 109.721 22.7361 109.697 22.7363H107.772L106.925 22.087L108.271 18.936L109.812 22.6616Z" fill="#7D7D7D"/>
<path d="M103.979 19.833L105.363 20.8864C105.137 21.1113 104.895 21.3205 104.641 21.5124L103.979 19.833ZM107.772 22.7387H106.849C106.828 22.7387 106.806 22.7332 106.788 22.7227C106.769 22.7123 106.753 22.6972 106.741 22.6788C106.729 22.6605 106.722 22.6395 106.721 22.6177C106.719 22.5959 106.723 22.5741 106.732 22.5542L106.93 22.087L107.772 22.7387Z" fill="#797979"/>
<path d="M106.89 18.5577C106.814 18.7612 106.726 18.9601 106.627 19.1534L103.978 19.8331L103.104 19.144C103.143 19.1043 103.182 19.0646 103.219 19.0226C103.47 18.7467 103.685 18.4389 103.858 18.1069L106.89 18.5577Z" fill="#868686"/>
<path d="M104.627 21.5194C103.547 22.3341 102.248 22.7998 100.902 22.8555L103.978 19.833L104.627 21.5194Z" fill="#7D7D7D"/>
<path d="M104.519 10.3499L103.333 13.0734C103.297 13.0254 103.258 12.9794 103.217 12.9356C102.872 12.5333 102.444 12.2122 101.963 11.9947C101.483 11.7773 100.961 11.6687 100.434 11.6766C100.148 11.6759 99.8625 11.7065 99.5827 11.7677L98.8535 9.23572C99.3698 9.1285 99.8957 9.07604 100.423 9.07922C101.887 9.04754 103.323 9.49298 104.519 10.3499Z" fill="#919191"/>
<path d="M103.979 19.833L100.903 22.8555C100.746 22.8555 100.584 22.8718 100.423 22.8718C99.057 22.8989 97.714 22.5143 96.5645 21.767L96.9083 19.8984L98.736 19.8821C99.2734 20.1485 99.8647 20.2846 100.463 20.2798C101.062 20.2749 101.651 20.1291 102.184 19.854L103.979 19.833Z" fill="#858585"/>
<path d="M99.5827 11.7699C98.8331 11.9426 98.1568 12.3515 97.6512 12.9378C96.9225 13.7403 96.5188 14.7909 96.5204 15.8808L93.5943 14.7503L93.5273 14.7246L93.6243 14.5775L96.495 10.2353C97.2078 9.74694 98.0096 9.4071 98.8535 9.2356L99.5827 11.7699Z" fill="#929292"/>
<path d="M97.9928 19.3589C98.2183 19.5616 98.4679 19.735 98.7359 19.8751L96.9082 19.8915L97.9928 19.3589ZM103.979 19.8331L102.188 19.8494C102.53 19.6654 102.841 19.429 103.111 19.1487L103.979 19.8331Z" fill="#898989"/>
<path d="M97.9936 19.3589L96.9113 19.8914L93.5952 14.8158L93.5352 14.7271L93.5952 14.7504L96.5213 15.8809V15.986C96.4958 17.1086 96.902 18.1973 97.6544 19.0225C97.7603 19.1418 97.8736 19.2541 97.9936 19.3589Z" fill="#8F8F8F"/>
<path d="M96.4919 10.2354L93.6211 14.5775C93.8643 13.2329 94.5219 12.0006 95.4996 11.0575C95.8049 10.7534 96.137 10.4782 96.4919 10.2354Z" fill="#999999"/>
<path d="M88.4336 22.7387L93.469 21.0476V22.5985C93.469 22.6157 93.4656 22.6327 93.4591 22.6486C93.4526 22.6644 93.4431 22.6789 93.4311 22.691C93.4191 22.7031 93.4049 22.7128 93.3892 22.7194C93.3735 22.7259 93.3567 22.7293 93.3397 22.7293H88.4336V22.7387ZM96.9074 19.8914L96.5636 21.76C96.1808 21.5048 95.8237 21.2122 95.4974 20.8864C95.3659 20.7556 95.239 20.6225 95.1213 20.4846L96.9074 19.8914Z" fill="#898989"/>
<path d="M93.4701 20.2114V21.0453L88.4347 22.7364H85.707L88.2986 20.0783H93.3409C93.358 20.0783 93.375 20.0817 93.3909 20.0885C93.4067 20.0952 93.4211 20.105 93.4331 20.1174C93.4451 20.1298 93.4546 20.1445 93.4609 20.1607C93.4673 20.1768 93.4704 20.1941 93.4701 20.2114ZM96.9086 19.8914L95.1247 20.4964C94.0449 19.2503 93.4682 17.6383 93.5093 15.9814C93.508 15.5904 93.5365 15.2 93.5947 14.8135L96.9086 19.8914Z" fill="#919191"/>
<path d="M88.2989 20.0807L85.7074 22.7388H85.0335C84.9993 22.7388 84.9664 22.725 84.9422 22.7005C84.9179 22.6759 84.9043 22.6427 84.9043 22.608L87.8466 14.1992V19.9732C87.8466 19.9903 87.85 20.0072 87.8565 20.0229C87.863 20.0387 87.8726 20.0529 87.8846 20.0649C87.8966 20.0769 87.9109 20.0863 87.9266 20.0926C87.9422 20.0989 87.959 20.102 87.9758 20.1017H88.2989V20.0807Z" fill="#979797"/>
<path d="M87.8453 9.5183V10.2611L87.7715 9.39917C87.7939 9.40961 87.8128 9.42644 87.8259 9.4476C87.8391 9.46876 87.8458 9.49332 87.8453 9.5183Z" fill="#9F9F9F"/>
<path d="M83.4565 11.4919C83.4776 11.5165 83.4892 11.548 83.4892 11.5806C83.4892 11.6132 83.4776 11.6447 83.4565 11.6694L81.7995 13.5707C81.7876 13.585 81.7728 13.5964 81.756 13.6043C81.7393 13.6121 81.7211 13.6162 81.7026 13.6162C81.6842 13.6162 81.6659 13.6121 81.6492 13.6043C81.6324 13.5964 81.6176 13.585 81.6057 13.5707C81.0365 12.8542 80.2616 12.3343 79.388 12.0828L78.7441 9.10938C80.5637 9.24405 82.2572 10.1003 83.4565 11.4919ZM86.2303 9.38499L84.9034 10.7491V9.51813C84.9034 9.48344 84.917 9.45018 84.9412 9.42565C84.9655 9.40112 84.9983 9.38733 85.0326 9.38733H86.2303V9.38499Z" fill="#A6A6A6"/>
<path d="M87.8466 10.2586V13.4749L84.9043 14.2995V10.7491L86.2312 9.38502H87.7174C87.7367 9.38482 87.7558 9.38964 87.7728 9.39903L87.8466 10.2586Z" fill="#A0A0A0"/>
<path d="M83.3716 20.2395C83.3944 20.2642 83.4072 20.2967 83.4072 20.3306C83.4072 20.3644 83.3944 20.397 83.3716 20.4217C83.1916 20.6225 83.0069 20.8094 82.82 20.9822L81.5508 18.4269C81.5712 18.4231 81.5923 18.4245 81.612 18.4311C81.6318 18.4376 81.6496 18.449 81.6639 18.4643L83.3716 20.2395ZM87.8462 13.4751V14.1782L84.9039 22.5963V14.2996L87.8462 13.4751Z" fill="#9B9B9B"/>
<path d="M82.8265 20.9844C81.9654 21.8175 80.9042 22.4085 79.748 22.6989L79.9211 19.6974C80.5209 19.4101 81.0504 18.9922 81.4719 18.4735C81.4916 18.45 81.5183 18.4336 81.548 18.4268L82.8265 20.9844Z" fill="#999999"/>
<path d="M79.9274 19.7L79.7474 22.6991C79.549 22.7481 79.3459 22.7878 79.1428 22.8159L75.102 22.281C75.0097 22.2405 74.9197 22.1984 74.832 22.1548L76.6966 19.8728C77.1241 20.0299 77.5757 20.109 78.0305 20.1064C78.6845 20.1123 79.3319 19.9736 79.9274 19.7Z" fill="#9D9D9D"/>
<path d="M76.6906 19.8726L74.8259 22.1547C74.7036 22.0916 74.5836 22.0262 74.4636 21.9561L72.2736 19.882C72.0025 19.474 71.7802 19.0349 71.6113 18.5739L74.4706 17.5906C74.6505 18.1134 74.9456 18.5879 75.3336 18.978C75.716 19.3729 76.1791 19.6783 76.6906 19.8726Z" fill="#A3A3A3"/>
<path d="M70.3633 10.7539L71.3025 10.4666L70.9702 11.0576L70.3633 10.7539ZM79.3933 12.0876C79.0172 11.9843 78.6291 11.9324 78.2394 11.9335C77.1875 11.9113 76.1684 12.3051 75.3987 13.0313C75.3433 13.0827 75.2925 13.1341 75.2441 13.1854L72.5256 11.8354C72.7291 11.5667 72.9512 11.3131 73.1902 11.0762C73.8361 10.4277 74.6044 9.91747 75.4493 9.57597C76.2941 9.23446 77.1983 9.06868 78.1079 9.0885C78.3387 9.0885 78.5417 9.0885 78.7541 9.11419L79.3933 12.0876Z" fill="#AAAAAA"/>
<path d="M70.3633 10.7539L70.9702 11.0576L70.4671 11.9428L70.3633 10.7539ZM74.2102 15.9837C74.2027 16.5277 74.2877 17.0689 74.4617 17.5837L71.6025 18.567C71.3088 17.7516 71.1633 16.889 71.1733 16.0211C71.1369 14.5056 71.6114 13.0228 72.5187 11.8167L75.2371 13.1667C74.5525 13.8877 74.2102 14.8267 74.2102 15.9837Z" fill="#A9A9A9"/>
<path d="M79.1443 22.8181C78.8202 22.8652 78.4932 22.8886 78.1658 22.8882C77.1145 22.9051 76.0714 22.699 75.1035 22.2832L79.1443 22.8181Z" fill="#989898"/>
<path d="M71.8021 9.58123L71.3013 10.4525L70.3598 10.7444L69.8867 9.37569H71.689C71.7132 9.37433 71.7373 9.37989 71.7586 9.39173C71.7798 9.40357 71.7973 9.42121 71.8091 9.44265C71.8209 9.46409 71.8265 9.48845 71.8253 9.51296C71.824 9.53746 71.816 9.56112 71.8021 9.58123Z" fill="#B1B1B1"/>
<path d="M67.3466 21.134V21.4844L66.6797 21.0359L67.3466 21.134Z" fill="#9E9E9E"/>
<path d="M67.3461 21.4844V22.5986C67.3461 22.6158 67.3427 22.6328 67.3362 22.6486C67.3297 22.6645 67.3202 22.6789 67.3082 22.6911C67.2962 22.7032 67.282 22.7129 67.2663 22.7194C67.2506 22.726 67.2338 22.7294 67.2168 22.7294H66.5938L66.6838 21.0266L67.3461 21.4844Z" fill="#9D9D9D"/>
<path d="M66.6797 21.0358L67.3466 20.6878V21.1339L66.6797 21.0358ZM74.4612 21.9561C73.9829 21.6747 73.5411 21.3342 73.1458 20.9424C72.8186 20.6216 72.5254 20.267 72.2712 19.8843L74.4612 21.9561Z" fill="#A4A4A4"/>
<path d="M70.4667 11.9428L68.0113 16.2897L65.6113 14.3627L65.8167 14.2062L65.9229 14.1244L66.0636 14.0193V14.017L66.0659 14.0146L70.3629 10.7539L70.4667 11.9428Z" fill="#AEAEAE"/>
<path d="M68.0113 16.292L67.3652 17.4365C67.3535 17.4563 67.3472 17.4789 67.3467 17.5019V20.6926L66.6798 21.0383L65.6113 14.365L68.0113 16.292Z" fill="#ABABAB"/>
<path d="M65.7633 14.1547C65.7765 14.1769 65.7957 14.1947 65.8187 14.2061L65.6133 14.3626L65.7217 14.08L65.7633 14.1547ZM70.3625 10.7538L66.0656 14.0239L68.6871 9.45749C68.6985 9.43793 68.7147 9.42165 68.7341 9.4102C68.7535 9.39875 68.7755 9.39252 68.7979 9.39209H69.8871L70.3625 10.7538Z" fill="#B4B4B4"/>
<path d="M66.6804 21.0359L66.5904 22.7387H64.5527L66.6804 21.0359Z" fill="#A2A2A2"/>
<path d="M58.8357 9.51828V10.4292L57.0449 9.38748H58.7065C58.7407 9.38748 58.7736 9.40126 58.7978 9.42579C58.8221 9.45032 58.8357 9.48359 58.8357 9.51828ZM65.6526 13.9562L65.6111 14.351L61.2011 11.7816L59.9457 9.56266C59.9344 9.54286 59.9284 9.52041 59.9284 9.49754C59.9283 9.47468 59.9342 9.45221 59.9454 9.43236C59.9566 9.4125 59.9728 9.39597 59.9923 9.38441C60.0117 9.37285 60.0339 9.36666 60.0565 9.36646H62.9503C62.9727 9.36688 62.9947 9.37312 63.0141 9.38457C63.0335 9.39602 63.0497 9.41229 63.0611 9.43186L65.6526 13.9562Z" fill="#BCBCBC"/>
<path d="M65.7198 14.0799L65.6113 14.3625L65.6529 13.9678L65.7198 14.0799Z" fill="#B8B8B8"/>
<path d="M66.68 21.0359L64.5523 22.7387H64.5316C64.4973 22.7387 64.4644 22.7249 64.4402 22.7004C64.416 22.6758 64.4023 22.6426 64.4023 22.6079V21.5941L66.68 21.0359Z" fill="#A9A9A9"/>
<path d="M64.4044 19.8283V17.4925C64.404 17.4695 64.3976 17.4469 64.386 17.4271L63.4629 15.8084L65.6044 14.3533L66.6729 21.0266L64.4044 19.8283Z" fill="#B0B0B0"/>
<path d="M58.3105 22.7387L59.0421 21.1317V22.5986C59.0421 22.6333 59.0285 22.6665 59.0042 22.6911C58.98 22.7156 58.9471 22.7294 58.9129 22.7294H58.3105V22.7387ZM66.6805 21.036L64.4029 21.5942V19.8284L66.6805 21.036Z" fill="#AEAEAE"/>
<path d="M58.8351 10.4268V11.91C58.8351 11.9447 58.8215 11.9779 58.7972 12.0025C58.773 12.027 58.7401 12.0408 58.7059 12.0408H57.462L56.0312 9.38501H57.042L58.8351 10.4268ZM65.6105 14.3625L63.4713 15.8154L61.2005 11.8002L65.6105 14.3625Z" fill="#B9B9B9"/>
<path d="M57.4655 12.0408H56.157L54.207 9.49246L54.3616 9.38501H56.0347L57.4655 12.0408Z" fill="#BFBFBF"/>
<path d="M59.0429 20.2325V21.1318L58.3113 22.7388H57.3075L49.6367 19.0016L52.2698 18.7119V19.9802C52.2698 20.0149 52.2834 20.0482 52.3076 20.0727C52.3319 20.0973 52.3648 20.111 52.399 20.111H58.916C58.9483 20.1115 58.9793 20.1243 59.0028 20.1468C59.0262 20.1693 59.0406 20.1999 59.0429 20.2325Z" fill="#B5B5B5"/>
<path d="M56.1563 12.041H52.9809L54.2063 9.49268L56.1563 12.041ZM58.1755 14.921V17.1984C58.1755 17.2331 58.1619 17.2663 58.1377 17.2909C58.1134 17.3154 58.0806 17.3292 58.0463 17.3292H52.3971C52.363 17.3298 52.3305 17.3437 52.3064 17.3681C52.2822 17.3925 52.2684 17.4255 52.2678 17.46V18.7003L49.6348 18.9899L52.2678 13.5195V14.6571C52.2678 14.6917 52.2815 14.725 52.3057 14.7495C52.3299 14.7741 52.3628 14.7879 52.3971 14.7879H58.0555C58.0886 14.7902 58.1195 14.8054 58.1418 14.8302C58.1641 14.8549 58.1762 14.8875 58.1755 14.921Z" fill="#BDBDBD"/>
<path d="M57.3055 22.7387H50.7978L49.6348 18.9897L57.3055 22.7387Z" fill="#B6B6B6"/>
<path d="M54.2073 9.49487L52.9796 12.0409H52.3958C52.3615 12.0409 52.3286 12.0546 52.3044 12.0792C52.2801 12.1037 52.2665 12.137 52.2665 12.1717V13.5217L49.6334 18.9921L49.3242 18.4782V11.8003L54.2073 9.49487Z" fill="#C3C3C3"/>
<path d="M47.8713 9.60223L45.9605 11.7511L45.6074 9.38501H47.7743C47.7992 9.38503 47.8235 9.39229 47.8444 9.40595C47.8653 9.4196 47.8818 9.43905 47.892 9.46198C47.9023 9.48491 47.9057 9.51033 47.9021 9.53521C47.8984 9.56008 47.8877 9.58335 47.8713 9.60223ZM54.2059 9.49479L49.3228 11.8002V9.51815C49.3228 9.48346 49.3364 9.45019 49.3607 9.42566C49.3849 9.40113 49.4178 9.38735 49.452 9.38735H53.5136L54.2059 9.49479Z" fill="#C9C9C9"/>
<path d="M46.585 20.6319C47.065 21.3155 47.4727 21.894 47.8081 22.3674L44.8242 21.5779L46.585 20.6319ZM50.7988 22.7388H49.4534C49.4192 22.7388 49.3863 22.725 49.3621 22.7004C49.3378 22.6759 49.3242 22.6426 49.3242 22.608V19.158L49.6334 18.9922L50.7988 22.7388Z" fill="#BBBBBB"/>
<path d="M47.8169 22.7387H45.17L44.8262 21.5708L47.8077 22.365L47.9208 22.5261C47.9352 22.5458 47.944 22.5692 47.9462 22.5936C47.9484 22.618 47.9439 22.6426 47.9331 22.6646C47.9224 22.6866 47.9059 22.7051 47.8854 22.7182C47.8648 22.7313 47.8412 22.7384 47.8169 22.7387Z" fill="#B6B6B6"/>
<path d="M45.3316 18.8613C45.7931 19.5185 46.2108 20.1118 46.5846 20.6412L44.8262 21.5755L45.2877 18.7726L45.3316 18.8613ZM49.6354 18.9898L49.3262 19.158V18.4783L49.6354 18.9898Z" fill="#C1C1C1"/>
<path d="M45.2856 18.7843L44.8241 21.5873L42.7195 20.1391L40.8571 17.6048C40.845 17.5901 40.8298 17.5782 40.8127 17.5701C40.7955 17.562 40.7768 17.5578 40.7579 17.5578C40.739 17.5578 40.7203 17.562 40.7031 17.5701C40.686 17.5782 40.6708 17.5901 40.6587 17.6048L40.0356 18.3055L36.6895 16.0048L44.0741 13.9026L42.8995 15.2223C42.8817 15.2453 42.872 15.2737 42.872 15.3029C42.872 15.3321 42.8817 15.3605 42.8995 15.3835C43.3441 16.0203 44.1395 17.154 45.2856 18.7843Z" fill="#C6C6C6"/>
<path d="M45.1695 22.7387H44.7079C44.6877 22.7388 44.6676 22.7339 44.6496 22.7246C44.6315 22.7152 44.6159 22.7016 44.6041 22.6849L44.0664 21.9515L44.8349 21.5754L45.1695 22.7387Z" fill="#B8B8B8"/>
<path d="M37.9961 9.8545L39.443 9.51348V10.4595L37.9961 9.8545ZM45.9646 11.7511L45.0415 12.7976L42.353 11.6717L44.3953 9.42706C44.4077 9.41366 44.4228 9.40301 44.4394 9.39578C44.4561 9.38854 44.4741 9.38488 44.4922 9.38501H45.6207L45.9646 11.7511Z" fill="#CDCDCD"/>
<path d="M45.0332 12.7884L44.0663 13.8769L36.6816 15.979L37.9878 9.84766L39.4347 10.4526V14.5239C39.433 14.5517 39.4401 14.5794 39.4551 14.6029C39.47 14.6264 39.492 14.6444 39.5178 14.6543C39.5436 14.6642 39.5718 14.6655 39.5984 14.658C39.625 14.6505 39.6485 14.6346 39.6655 14.6126L42.3447 11.6649L45.0332 12.7884Z" fill="#CCCCCC"/>
<path d="M36.6875 15.9836L40.0337 18.2844L39.4752 18.9174C39.4542 18.9411 39.4427 18.9719 39.4429 19.0038V22.5985C39.4429 22.6332 39.4293 22.6665 39.405 22.691C39.3808 22.7156 39.3479 22.7293 39.3137 22.7293H39.2767L36.6875 15.9836ZM44.8244 21.5778L44.0583 21.9515L42.7198 20.1296L44.8244 21.5778Z" fill="#C2C2C2"/>
<path d="M32.5312 16.5864L35.2359 16.1963V19.3706L32.5312 16.5864ZM39.2766 22.7388H38.5105L36.5005 20.6693V16.0118L36.6874 15.9861L39.2766 22.7388Z" fill="#C8C8C8"/>
<path d="M32.5311 16.5862L35.2357 19.3704V22.4723C35.2357 22.545 35.2073 22.6148 35.1568 22.6664C35.1062 22.718 35.0375 22.7473 34.9657 22.7479H31.8203L32.5311 16.5862ZM38.5103 22.7386H36.6295C36.5953 22.7386 36.5624 22.7248 36.5382 22.7003C36.5139 22.6757 36.5003 22.6425 36.5003 22.6078V20.6691L38.5103 22.7386Z" fill="#C2C2C2"/>
<path d="M32.531 16.5862L31.8202 22.7456H28.0356L26.8887 19.952L32.531 16.5862Z" fill="#C7C7C7"/>
<path d="M32.5312 16.5862L35.2359 13.2554V16.1961L32.5312 16.5862ZM37.9959 9.85449L36.6874 15.9859L36.5005 16.0116V11.6951L37.9959 9.85449Z" fill="#CECECE"/>
<path d="M35.2348 9.64671V13.2555L32.5302 16.5886L30.4902 9.37109H34.9602C35.0327 9.37109 35.1022 9.40006 35.1536 9.45168C35.205 9.5033 35.2342 9.5734 35.2348 9.64671ZM37.9949 9.8546L36.4995 11.6952V9.53226L37.9949 9.8546Z" fill="#D3D3D3"/>
<path d="M28.0346 22.7457H26.0384L25.5215 21.9959L26.8876 19.9521L28.0346 22.7457Z" fill="#C6C6C6"/>
<path d="M32.5307 16.5862L25.0469 13.3838L28.9838 9.36865H30.493L32.5307 16.5862Z" fill="#D5D5D5"/>
<path d="M25.0566 13.384L26.9028 19.9522L32.5451 16.5864L25.0566 13.384Z" fill="#D0D0D0"/>
<path d="M26.038 22.7456H25.498L25.5211 21.9958L26.038 22.7456Z" fill="#BFBFBF"/>
<path d="M28.9836 9.36865L25.0467 13.3838L24.3359 9.79376L25.8544 9.36865H28.9836Z" fill="#D9D9D9"/>
<path d="M25.0561 13.384L15.9707 15.5049L25.5176 21.996L25.0561 13.384Z" fill="#D4D4D4"/>
<path d="M25.0566 13.384L25.5182 21.996L26.8843 19.9522L25.0566 13.384Z" fill="#D0D0D0"/>
<path d="M24.3356 9.79395L15.9609 15.5049L25.0556 13.384L24.3356 9.79395Z" fill="#D9D9D9"/>
<path d="M15.9603 15.5048L12.0211 22.7456H9.77802L8.12109 15.3833L15.9603 15.5048Z" fill="#D8D8D8"/>
<path d="M11.9223 9.36865L8.12157 15.3833L7.15234 9.7307L7.2885 9.49712C7.31071 9.46093 7.34162 9.43103 7.37835 9.4102C7.41507 9.38936 7.4564 9.37829 7.4985 9.378H11.9223V9.36865Z" fill="#E2E2E2"/>
<path d="M9.77989 22.7456H7.50219C7.45879 22.7461 7.41603 22.7349 7.37831 22.7132C7.3406 22.6914 7.30928 22.6599 7.28758 22.6218L4.01758 16.8899L8.12066 15.3833L9.77989 22.7456Z" fill="#D8D8D8"/>
<path d="M8.12224 15.3833L5.4707 12.6784L7.1507 9.73071L8.12224 15.3833Z" fill="#E4E4E4"/>
<path d="M20.1108 9.36865H13.4785L15.9616 15.5047L24.3362 9.79376L21.8116 9.36865H20.1108Z" fill="#DEDEDE"/>
<path d="M12.4411 9.36865H11.9219L8.12109 15.3833L15.9603 15.5047L13.4772 9.36865H12.4411Z" fill="#DEDEDE"/>
<path d="M23.6992 22.7456H25.4992L25.5223 21.9958L23.6992 22.7456Z" fill="#C5C5C5"/>
<path d="M25.5217 21.996L15.9609 15.5049L17.6825 22.7458H23.6986L25.5217 21.996Z" fill="#D0D0D0"/>
<path d="M12.0215 22.7458H17.6823L15.9607 15.5049L12.0215 22.7458Z" fill="#D1D1D1"/>
<path d="M54.3613 9.38501L54.2067 9.49246L54.1328 9.38501H54.3613Z" fill="#C8C8C8"/>
<path d="M54.2076 9.49246L53.5176 9.38501H54.1337L54.2076 9.49246Z" fill="#CBCBCB"/>
<path d="M39.443 9.51836L37.9961 9.85705L38.393 9.38989H39.3161C39.3328 9.38989 39.3493 9.39321 39.3647 9.39967C39.3801 9.40612 39.3941 9.41559 39.4058 9.42752C39.4176 9.43944 39.427 9.45361 39.4334 9.46919C39.4397 9.48478 39.443 9.50149 39.443 9.51836Z" fill="#D1D1D1"/>
<path d="M38.3918 9.38501L37.9948 9.8545L37.9141 9.38501H38.3918Z" fill="#D7D7D7"/>
<path d="M37.9954 9.8546L36.5 9.53227V9.51825C36.5 9.48356 36.5136 9.4503 36.5379 9.42577C36.5621 9.40123 36.595 9.38745 36.6292 9.38745H37.9146L37.9954 9.8546Z" fill="#D9D9D9"/>
<path d="M24.3613 9.36865L24.3359 9.79376L25.8544 9.36865H24.3613Z" fill="#DDDDDD"/>
<path d="M21.8105 9.36865L24.3352 9.79376L24.1021 9.36865H21.8105Z" fill="#E3E3E3"/>
<path d="M24.1035 9.36865L24.3366 9.79376L24.362 9.36865H24.1035Z" fill="#E2E2E2"/>
<path d="M17.4653 9.48564L13.773 15.9604C13.757 15.9906 13.7483 16.0242 13.7476 16.0585H11.1699L16.2468 7.1709C16.2785 7.18836 16.3048 7.21419 16.323 7.24564L17.4768 9.26608C17.4929 9.30083 17.5002 9.33902 17.4982 9.37732C17.4962 9.41561 17.4849 9.45281 17.4653 9.48564Z" fill="#00B8E3"/>
<path d="M17.461 22.8694L16.3072 24.8805C16.2872 24.9114 16.2604 24.937 16.2287 24.9553L11.168 16.0583H13.748C13.7475 16.0935 13.7563 16.1282 13.7734 16.1588L17.4657 22.6289C17.4881 22.6651 17.4996 22.7071 17.4988 22.7498C17.498 22.7926 17.4849 22.8342 17.461 22.8694Z" fill="#33C6E9"/>
<path d="M16.2365 7.1825L11.1711 16.0584L9.89958 18.2867L8.67189 16.1659C8.65479 16.1352 8.64603 16.1006 8.6465 16.0654C8.64678 16.0286 8.65631 15.9924 8.67419 15.9603L9.9042 13.8044L13.638 7.26425C13.6569 7.23023 13.6844 7.20192 13.7176 7.18221C13.7509 7.16251 13.7887 7.15212 13.8273 7.15213H16.1188C16.16 7.15144 16.2007 7.16192 16.2365 7.1825Z" fill="#008AAA"/>
<path d="M16.2357 24.9553C16.2026 24.9743 16.1653 24.9847 16.1273 24.9856H13.8357C13.7972 24.9857 13.7593 24.9753 13.7261 24.9556C13.6928 24.9359 13.6653 24.9075 13.6465 24.8735L10.2334 18.8893L9.89648 18.296L11.168 16.0583L16.2357 24.9553Z" fill="#00B8E3"/>
<path d="M26.4404 16.0583L21.3635 24.9553C21.3327 24.9367 21.3066 24.9111 21.2873 24.8805L20.1335 22.8648C20.1176 22.8325 20.1094 22.7969 20.1094 22.7608C20.1094 22.7248 20.1176 22.6892 20.1335 22.6569L23.8258 16.1821C23.8457 16.1482 23.856 16.1095 23.8558 16.07H26.4404V16.0583Z" fill="#008AAA"/>
<path d="M28.9401 16.0585C28.9404 16.0979 28.93 16.1367 28.9101 16.1706L23.944 24.8737C23.9244 24.9053 23.8971 24.9313 23.8648 24.9493C23.8325 24.9673 23.7962 24.9766 23.7594 24.9765H21.4701C21.4313 24.9759 21.3932 24.9655 21.3594 24.9461L26.4409 16.0585L27.7125 13.8325L28.9194 15.9487C28.9357 15.9828 28.9429 16.0207 28.9401 16.0585Z" fill="#00B8E3"/>
<path d="M26.4405 16.0583H23.8512C23.8512 16.0196 23.8408 15.9817 23.8212 15.9485L20.1289 9.48077C20.1072 9.44578 20.0957 9.4053 20.0957 9.36398C20.0957 9.32266 20.1072 9.28218 20.1289 9.24719L21.2828 7.23376C21.3059 7.21112 21.3334 7.19362 21.3636 7.18237L26.4405 16.0583Z" fill="#00B8E3"/>
<path d="M27.7002 13.8347L26.4402 16.0584L21.3633 7.18247C21.3971 7.16307 21.4352 7.15262 21.4741 7.1521H23.7633C23.8001 7.15194 23.8364 7.1613 23.8687 7.17928C23.901 7.19726 23.9283 7.22328 23.9479 7.25488L27.7002 13.8347Z" fill="#33C6E9"/>
<defs>
<linearGradient id="paint0_linear_139_2923" x1="3.28516" y1="16.2545" x2="134.087" y2="16.2545" gradientUnits="userSpaceOnUse">
<stop stop-color="#E6E6E6"/>
<stop offset="1" stop-color="#595959"/>
</linearGradient>
</defs>
</svg>
