<svg width="35" height="34" viewBox="0 0 35 34" fill="none" xmlns="http://www.w3.org/2000/svg">
<path d="M28.6667 29.8137V26.9804C28.6667 25.4775 28.0696 24.0362 27.0069 22.9734C25.9442 21.9107 24.5029 21.3137 23 21.3137H21.5833C21.2076 21.3137 20.8473 21.1645 20.5816 20.8988C20.3159 20.6331 20.1667 20.2728 20.1667 19.8971V12.8137C20.1667 12.0623 19.8682 11.3416 19.3368 10.8103C18.8054 10.2789 18.0848 9.98039 17.3333 9.98039C16.5819 9.98039 15.8612 10.2789 15.3299 10.8103C14.7985 11.3416 14.5 12.0623 14.5 12.8137V25.5637L11.1 21.0304C10.8361 20.6785 10.4939 20.3929 10.1004 20.1962C9.70701 19.9995 9.27319 19.8971 8.83333 19.8971H8.2185C6.99308 19.8971 6 20.8901 6 22.1156C6 22.5179 6.10908 22.9131 6.31592 23.2574L10.25 29.8137M17.3333 5.73039V4.31372M25.8333 14.2304H27.25M7.41667 14.2304H8.83333M10.7359 7.63297L9.73433 6.63139M23.9307 7.63297L24.9323 6.63139" stroke="#7D54A5" stroke-width="2" stroke-linecap="round" stroke-linejoin="round"/>
</svg>
