<svg width="37" height="36" viewBox="0 0 37 36" fill="none" xmlns="http://www.w3.org/2000/svg">
<g clip-path="url(#clip0_139_2889)">
<path d="M18.1176 0.0935059C8.21551 0.0935059 0.1875 8.12056 0.1875 18.023C0.1875 27.9251 8.21551 35.9528 18.1176 35.9528C28.0197 35.9528 36.0474 27.9251 36.0474 18.023C36.0474 8.12056 28.0194 0.0935059 18.1176 0.0935059ZM18.1176 33.6506C15.3003 33.6506 13.0161 31.7686 13.0161 29.4477H23.2191C23.2191 31.7682 20.9349 33.6506 18.1176 33.6506ZM26.5437 28.0558H9.69062V24.9999H26.544V28.0558H26.5437ZM26.4832 23.427H9.73871C9.68302 23.3628 9.62607 23.2995 9.57228 23.2343C7.8472 21.1397 7.44093 20.0461 7.04636 18.9317C7.03972 18.895 9.13816 19.3605 10.6262 19.6952C10.6262 19.6952 11.392 19.8724 12.5114 20.0765C11.4366 18.8166 10.7984 17.2149 10.7984 15.5778C10.7984 11.9836 13.555 8.84293 12.5605 6.30436C13.5284 6.38314 14.5637 8.34711 14.6336 11.4179C15.6626 9.99594 16.0932 7.39914 16.0932 5.80696C16.0932 4.15845 17.1795 2.24353 18.266 2.17803C17.2975 3.77433 18.5169 5.14281 19.601 8.53759C20.0075 9.81273 19.9557 11.9586 20.2695 13.3195C20.3736 10.493 20.8596 6.36891 22.6528 4.94505C21.8617 6.73816 22.7698 8.98184 23.3909 10.0605C24.393 11.8008 25.0005 13.1192 25.0005 15.6129C25.0005 17.2848 24.3832 18.859 23.3419 20.0895C24.5259 19.8674 25.3435 19.6671 25.3435 19.6671L29.1886 18.9169C29.1889 18.9165 28.6301 21.2143 26.4832 23.427Z" fill="#DA4E31"/>
</g>
<defs>
<clipPath id="clip0_139_2889">
<rect width="36" height="36" fill="white" transform="translate(0.117188)"/>
</clipPath>
</defs>
</svg>
