<svg width="36" height="35" viewBox="0 0 36 35" fill="none" xmlns="http://www.w3.org/2000/svg">
<path fill-rule="evenodd" clip-rule="evenodd" d="M16.0931 4.31372H18.6451C20.8661 4.31372 22.6254 4.31372 24.0017 4.4986C25.4178 4.68951 26.5646 5.09068 27.4696 5.99451C27.6297 6.16631 27.7168 6.39353 27.7127 6.62831C27.7085 6.86309 27.6134 7.0871 27.4474 7.25314C27.2813 7.41918 27.0573 7.51429 26.8226 7.51843C26.5878 7.52257 26.3606 7.43543 26.1888 7.27535C25.6764 6.76543 24.9756 6.45851 23.76 6.29539C22.5191 6.12864 20.8818 6.12622 18.5775 6.12622H16.1608C13.8565 6.12622 12.2204 6.12864 10.9771 6.29539C9.76268 6.45851 9.06185 6.76543 8.55072 7.27655C8.0396 7.78768 7.73268 8.48851 7.56956 9.7041C7.40281 10.9463 7.40039 12.5823 7.40039 14.8866V19.72C7.40039 22.0243 7.40281 23.6616 7.56956 24.9037C7.73268 26.1181 8.0396 26.8189 8.55072 27.3301C9.06185 27.8412 9.76268 28.1481 10.9783 28.3112C12.2204 28.478 13.8565 28.4804 16.1608 28.4804H18.5775C20.8818 28.4804 22.5191 28.478 23.7612 28.3112C24.9756 28.1481 25.6764 27.8412 26.1876 27.3301C27.0286 26.4891 27.2835 25.1828 27.327 22.1233C27.3305 21.883 27.4294 21.6539 27.6018 21.4864C27.7743 21.319 28.0062 21.2269 28.2466 21.2304C28.4869 21.2339 28.716 21.3328 28.8835 21.5052C29.0509 21.6777 29.143 21.9096 29.1395 22.1499C29.0972 25.0826 28.9075 27.1742 27.4696 28.6121C26.5646 29.5159 25.4178 29.9171 24.0017 30.108C22.6242 30.2929 20.8661 30.2929 18.6451 30.2929H16.0931C13.8722 30.2929 12.1129 30.2929 10.7366 30.108C9.32043 29.9171 8.17372 29.5159 7.26868 28.6121C6.36485 27.7071 5.96368 26.5603 5.77277 25.1442C5.58789 23.7667 5.58789 22.0086 5.58789 19.7876V14.819C5.58789 12.5981 5.58789 10.8387 5.77277 9.46243C5.96368 8.04626 6.36485 6.89955 7.26868 5.99451C8.17372 5.09068 9.32043 4.68951 10.7366 4.4986C12.1141 4.31372 13.8722 4.31372 16.0931 4.31372ZM24.7569 11.3172C25.0589 11.001 25.4212 10.7484 25.8222 10.5741C26.2233 10.3999 26.6552 10.3075 27.0924 10.3025C27.5297 10.2975 27.9635 10.38 28.3685 10.545C28.7734 10.71 29.1413 10.9543 29.4506 11.2636C29.7598 11.5728 30.0041 11.9407 30.1691 12.3456C30.3341 12.7506 30.4166 13.1844 30.4116 13.6217C30.4066 14.0589 30.3142 14.4908 30.14 14.8919C29.9657 15.293 29.7131 15.6552 29.3969 15.9572L23.6525 21.7053C23.4135 21.957 23.1592 22.1939 22.8912 22.4146C22.6133 22.6321 22.3112 22.8181 21.9922 22.9704C21.7216 23.0997 21.4364 23.1939 21.0183 23.3329L18.5001 24.1727C18.2275 24.2639 17.9348 24.2773 17.6549 24.2114C17.375 24.1455 17.119 24.0029 16.9157 23.7996C16.7124 23.5963 16.5698 23.3403 16.5039 23.0604C16.438 22.7806 16.4514 22.4879 16.5426 22.2152L17.3655 19.7502L17.3824 19.6982C17.5226 19.2789 17.6168 18.995 17.7461 18.7243C17.8982 18.4054 18.0846 18.1039 18.302 17.8253C18.4868 17.5885 18.6983 17.377 19.0113 17.0641L19.0487 17.0266L24.7569 11.3172ZM28.1161 12.5981C27.9796 12.4616 27.8176 12.3533 27.6393 12.2794C27.461 12.2055 27.2699 12.1675 27.0769 12.1675C26.8839 12.1675 26.6928 12.2055 26.5145 12.2794C26.3362 12.3533 26.1742 12.4616 26.0377 12.5981L25.8178 12.818C25.8299 12.8578 25.8432 12.9026 25.8589 12.9473C25.9725 13.2735 26.1888 13.7085 26.5972 14.1169C26.9587 14.4806 27.4051 14.7485 27.8961 14.8963L28.1161 14.6764C28.2526 14.5399 28.3608 14.3779 28.4347 14.1996C28.5086 14.0213 28.5466 13.8302 28.5466 13.6372C28.5466 13.4442 28.5086 13.2531 28.4347 13.0748C28.3608 12.8965 28.2526 12.7345 28.1161 12.5981ZM26.5114 16.2811C26.0704 16.0491 25.6671 15.7517 25.3151 15.399C24.9624 15.0471 24.665 14.6437 24.4331 14.2027L20.3296 18.3062C19.9658 18.6699 19.8378 18.8004 19.7302 18.9382C19.5937 19.1134 19.4765 19.3031 19.381 19.5025C19.3061 19.6608 19.2469 19.8336 19.0838 20.3217L18.6004 21.7717L18.9424 22.1137L20.3924 21.6303C20.8806 21.4672 21.0533 21.408 21.2116 21.3331C21.411 21.2364 21.6007 21.1204 21.7759 20.9839C21.9137 20.8763 22.0442 20.7483 22.4079 20.3846L26.5114 16.2811ZM11.6296 13.6783C11.6296 13.438 11.725 13.2074 11.895 13.0375C12.0649 12.8675 12.2955 12.7721 12.5358 12.7721H20.39C20.6303 12.7721 20.8608 12.8675 21.0308 13.0375C21.2007 13.2074 21.2962 13.438 21.2962 13.6783C21.2962 13.9187 21.2007 14.1492 21.0308 14.3191C20.8608 14.4891 20.6303 14.5846 20.39 14.5846H12.5358C12.2955 14.5846 12.0649 14.4891 11.895 14.3191C11.725 14.1492 11.6296 13.9187 11.6296 13.6783ZM11.6296 18.5116C11.6296 18.2713 11.725 18.0408 11.895 17.8708C12.0649 17.7009 12.2955 17.6054 12.5358 17.6054H15.5566C15.797 17.6054 16.0275 17.7009 16.1975 17.8708C16.3674 18.0408 16.4629 18.2713 16.4629 18.5116C16.4629 18.752 16.3674 18.9825 16.1975 19.1525C16.0275 19.3224 15.797 19.4179 15.5566 19.4179H12.5358C12.2955 19.4179 12.0649 19.3224 11.895 19.1525C11.725 18.9825 11.6296 18.752 11.6296 18.5116ZM11.6296 23.345C11.6296 23.1046 11.725 22.8741 11.895 22.7042C12.0649 22.5342 12.2955 22.4387 12.5358 22.4387H14.3483C14.5887 22.4387 14.8192 22.5342 14.9891 22.7042C15.1591 22.8741 15.2546 23.1046 15.2546 23.345C15.2546 23.5853 15.1591 23.8158 14.9891 23.9858C14.8192 24.1557 14.5887 24.2512 14.3483 24.2512H12.5358C12.2955 24.2512 12.0649 24.1557 11.895 23.9858C11.725 23.8158 11.6296 23.5853 11.6296 23.345Z" fill="#7D54A5"/>
</svg>
