<svg width="131" height="24" viewBox="0 0 131 24" fill="none" xmlns="http://www.w3.org/2000/svg">
<path d="M70.7406 19.1633V0.0605469H73.0571V7.09263C73.9547 5.315 75.4893 4.42618 77.5741 4.42618C80.9619 4.42618 83.0757 6.80592 83.0757 10.5045V19.1633H80.7592V11.078C80.7592 8.18215 79.4852 6.57654 77.1977 6.57654C74.7365 6.57654 73.0571 8.44019 73.0571 11.1066V19.1633H70.7406Z" fill="white" fill-opacity="0.8"/>
<path d="M7.15375 19.5647C4.17133 19.5647 1.88385 18.2745 0.8125 15.9521L2.75252 14.8339C3.67909 16.6402 5.24269 17.443 7.15375 17.443C9.12272 17.443 10.5705 16.5829 10.5705 15.2067C10.5705 13.6508 8.74767 13.254 6.73699 12.8164C4.26427 12.2781 1.50743 11.6781 1.50743 8.78425C1.50743 6.23249 3.67909 4.42618 6.86419 4.42618C9.49914 4.42618 11.6418 5.65906 12.5974 7.78075L10.7153 8.81292C9.81765 7.23599 8.57257 6.49053 6.83524 6.49053C4.92418 6.49053 3.70805 7.37935 3.70805 8.61222C3.70805 10.1086 5.45133 10.4689 7.40876 10.8735C9.91447 11.3914 12.7711 11.9818 12.7711 15.1207C12.7711 17.8731 10.5705 19.5647 7.15375 19.5647Z" fill="white" fill-opacity="0.8"/>
<path d="M17.4706 23.939L19.4895 18.9053L13.8142 4.82758H16.2464L20.6766 16.2388L24.8752 4.82758H27.3074L19.918 23.939H17.4706Z" fill="white" fill-opacity="0.8"/>
<path d="M123.374 23.939L130.763 4.82758H128.331L124.132 16.2388L119.702 4.82758H117.27L122.945 18.9053L120.926 23.939H123.374Z" fill="white" fill-opacity="0.8"/>
<path fill-rule="evenodd" clip-rule="evenodd" d="M55.5175 23.939V16.6116C56.6178 18.4179 58.471 19.5647 60.9322 19.5647C65.1018 19.5647 68.0842 16.3249 68.0842 11.9955C68.0842 7.66606 65.1018 4.42618 60.9322 4.42618C58.471 4.42618 56.6178 5.57304 55.5175 7.37935V4.82758H53.2011V23.939H55.5175ZM60.6137 17.3857C63.6251 17.3857 65.7099 15.092 65.7099 11.9955C65.7099 8.89894 63.6251 6.60522 60.6137 6.60522C57.6023 6.60522 55.5175 8.89894 55.5175 11.9955C55.5175 15.092 57.6023 17.3857 60.6137 17.3857Z" fill="white" fill-opacity="0.8"/>
<path d="M29.2144 19.1633H31.5309V10.8486C31.5309 8.26816 32.9786 6.57654 35.2082 6.57654C37.293 6.57654 38.3644 8.06746 38.3644 10.8773V19.1633H40.6808V10.8486C40.6808 8.26816 42.1286 6.57654 44.3581 6.57654C46.4429 6.57654 47.5143 8.06746 47.5143 10.8773V19.1633H49.8307V10.2752C49.8307 6.37584 47.7459 4.42618 44.7346 4.42618C42.6787 4.42618 41.0572 5.315 40.1885 7.35067C39.4067 5.40101 37.8432 4.42618 35.7873 4.42618C33.9342 4.42618 32.3995 5.22898 31.5309 7.03529V4.82758H29.2144V19.1633Z" fill="white" fill-opacity="0.8"/>
<path fill-rule="evenodd" clip-rule="evenodd" d="M93.0441 19.5647C88.6718 19.5647 85.5735 16.2962 85.5735 11.9955C85.5735 7.69473 88.6718 4.42618 93.0441 4.42618C97.4163 4.42618 100.515 7.69473 100.515 11.9955C100.515 16.2962 97.4163 19.5647 93.0441 19.5647ZM93.0441 17.3857C96.0554 17.3857 98.1402 15.092 98.1402 11.9955C98.1402 8.89894 96.0554 6.60522 93.0441 6.60522C90.0327 6.60522 87.9479 8.89894 87.9479 11.9955C87.9479 15.092 90.0327 17.3857 93.0441 17.3857Z" fill="white" fill-opacity="0.8"/>
<path d="M103.19 19.1633H105.506V11.1066C105.506 8.44019 107.186 6.57654 109.647 6.57654C111.935 6.57654 113.209 8.18215 113.209 11.078V19.1633H115.525V10.5045C115.525 6.80592 113.44 4.42618 110.052 4.42618C107.939 4.42618 106.404 5.34367 105.506 7.20732V4.82758H103.19V19.1633Z" fill="white" fill-opacity="0.8"/>
</svg>
