<svg width="152" height="28" viewBox="0 0 152 28" fill="none" xmlns="http://www.w3.org/2000/svg">
<path d="M81.6819 22.4V0H84.3841V8.24584C85.4312 6.16138 87.2214 5.11915 89.6533 5.11915C93.6052 5.11915 96.071 7.90964 96.071 12.2467V22.4H93.3688V12.9191C93.3688 9.52341 91.8826 7.64067 89.2142 7.64067C86.3431 7.64067 84.3841 9.82599 84.3841 12.9527V22.4H81.6819Z" fill="white" fill-opacity="0.8"/>
<path d="M7.50656 22.8707C4.02752 22.8707 1.35913 21.3577 0.109375 18.6345L2.37244 17.3233C3.45331 19.4414 5.27727 20.3828 7.50656 20.3828C9.80341 20.3828 11.4923 19.3742 11.4923 17.7604C11.4923 15.936 9.3659 15.4707 7.02041 14.9575C4.13593 14.3264 0.920026 13.6227 0.920026 10.2294C0.920026 7.23723 3.45331 5.11915 7.16879 5.11915C10.2425 5.11915 12.742 6.56482 13.8567 9.05272L11.6612 10.2631C10.6141 8.41394 9.16164 7.53981 7.13502 7.53981C4.90573 7.53981 3.48709 8.58204 3.48709 10.0277C3.48709 11.7824 5.52066 12.2049 7.80404 12.6793C10.727 13.2865 14.0593 13.9789 14.0593 17.6595C14.0593 20.8871 11.4923 22.8707 7.50656 22.8707Z" fill="white" fill-opacity="0.8"/>
<path d="M19.5414 28L21.8964 22.0974L15.2761 5.58984H18.1134L23.2813 18.9707L28.179 5.58984H31.0162L22.3963 28H19.5414Z" fill="white" fill-opacity="0.8"/>
<path d="M143.08 28L151.7 5.58984H148.862L143.965 18.9707L138.797 5.58984H135.959L142.58 22.0974L140.225 28H143.08Z" fill="white" fill-opacity="0.8"/>
<path fill-rule="evenodd" clip-rule="evenodd" d="M63.9238 28V19.4078C65.2074 21.5258 67.3691 22.8707 70.2402 22.8707C75.1041 22.8707 78.5831 19.0716 78.5831 13.9949C78.5831 8.91824 75.1041 5.11915 70.2402 5.11915C67.3691 5.11915 65.2074 6.46396 63.9238 8.58204V5.58984H61.2217V28H63.9238ZM69.8686 20.3155C73.3814 20.3155 75.8134 17.6259 75.8134 13.9949C75.8134 10.3639 73.3814 7.67429 69.8686 7.67429C66.3558 7.67429 63.9238 10.3639 63.9238 13.9949C63.9238 17.6259 66.3558 20.3155 69.8686 20.3155Z" fill="white" fill-opacity="0.8"/>
<path d="M33.2408 22.4H35.9429V12.6501C35.9429 9.62427 37.6318 7.64067 40.2326 7.64067C42.6646 7.64067 43.9143 9.38893 43.9143 12.6837V22.4H46.6165V12.6501C46.6165 9.62427 48.3054 7.64067 50.9062 7.64067C53.3382 7.64067 54.5879 9.38893 54.5879 12.6837V22.4H57.2901V11.9777C57.2901 7.40533 54.8581 5.11915 51.3453 5.11915C48.9471 5.11915 47.0556 6.16138 46.0423 8.54842C45.1303 6.26224 43.3064 5.11915 40.9082 5.11915C38.7464 5.11915 36.9562 6.06052 35.9429 8.1786V5.58984H33.2408V22.4Z" fill="white" fill-opacity="0.8"/>
<path fill-rule="evenodd" clip-rule="evenodd" d="M107.699 22.8707C102.599 22.8707 98.9848 19.0379 98.9848 13.9949C98.9848 8.95187 102.599 5.11915 107.699 5.11915C112.8 5.11915 116.414 8.95187 116.414 13.9949C116.414 19.0379 112.8 22.8707 107.699 22.8707ZM107.699 20.3155C111.212 20.3155 113.644 17.6259 113.644 13.9949C113.644 10.3639 111.212 7.67429 107.699 7.67429C104.186 7.67429 101.755 10.3639 101.755 13.9949C101.755 17.6259 104.186 20.3155 107.699 20.3155Z" fill="white" fill-opacity="0.8"/>
<path d="M119.535 22.4H122.237V12.9527C122.237 9.82599 124.196 7.64067 127.067 7.64067C129.735 7.64067 131.222 9.52341 131.222 12.9191V22.4H133.924V12.2467C133.924 7.90964 131.492 5.11915 127.54 5.11915C125.074 5.11915 123.284 6.195 122.237 8.38032V5.58984H119.535V22.4Z" fill="white" fill-opacity="0.8"/>
</svg>
