<svg width="16" height="20" viewBox="0 0 16 20" fill="none" xmlns="http://www.w3.org/2000/svg">
<path fill-rule="evenodd" clip-rule="evenodd" d="M15.4569 11.0977L15.4569 0.0605469L11.9737 0.060547L11.9737 5.08166C10.7716 4.30568 9.33602 3.85472 7.79406 3.85472C3.56179 3.85472 0.130859 7.25201 0.130859 11.4428C0.130859 15.6335 3.56179 19.0308 7.79406 19.0308C12.0263 19.0308 15.4573 15.6335 15.4573 11.4428C15.4573 11.3271 15.4547 11.2121 15.4495 11.0977H15.4569ZM3.61413 11.4428C3.61413 9.1569 5.48555 7.30384 7.79406 7.30384C10.1026 7.30384 11.974 9.1569 11.974 11.4428C11.974 13.7286 10.1026 15.5817 7.79406 15.5817C5.48555 15.5817 3.61413 13.7286 3.61413 11.4428Z" fill="white"/>
</svg>
