<svg width="18" height="23" viewBox="0 0 18 23" fill="none" xmlns="http://www.w3.org/2000/svg">
<path fill-rule="evenodd" clip-rule="evenodd" d="M17.9991 12.9422L17.9991 0L13.9358 1.76791e-07L13.9358 5.88765C12.5336 4.9778 10.859 4.44906 9.06037 4.44906C4.12335 4.44906 0.121094 8.43272 0.121094 13.3468C0.121094 18.2609 4.12335 22.2446 9.06037 22.2446C13.9974 22.2446 17.9997 18.2609 17.9997 13.3468C17.9997 13.2112 17.9966 13.0763 17.9906 12.9422H17.9991ZM4.1844 13.3468C4.1844 10.6664 6.36745 8.4935 9.06037 8.4935C11.7533 8.4935 13.9363 10.6664 13.9363 13.3468C13.9363 16.0272 11.7533 18.2002 9.06037 18.2002C6.36745 18.2002 4.1844 16.0272 4.1844 13.3468Z" fill="white"/>
</svg>
