<svg width="784" height="384" viewBox="0 0 784 384" fill="none" xmlns="http://www.w3.org/2000/svg">
<path fill-rule="evenodd" clip-rule="evenodd" d="M102 191.765C102 142.171 142.183 102 191.711 102C197.493 102 210.207 105.281 230.148 116.977C248.866 127.955 268.888 143.312 287.876 159.782C300.581 170.801 312.333 181.889 322.342 191.765C312.333 201.64 300.581 212.729 287.876 223.748C268.888 240.218 248.866 255.575 230.148 266.553C210.207 278.249 197.493 281.53 191.711 281.53C142.183 281.53 102 241.359 102 191.765ZM392.143 264.78C403.163 275.615 416.11 287.799 430.231 300.046C451.671 318.643 476.917 338.353 503.04 353.674C527.939 368.278 559.639 382.53 592.575 382.53C697.92 382.53 783.285 297.103 783.285 191.765C783.285 86.4267 697.92 1 592.575 1C559.639 1 527.939 15.2522 503.04 29.8559C476.917 45.1772 451.671 64.8867 430.231 83.4833C416.11 95.7309 403.163 107.915 392.143 118.75C381.122 107.915 368.175 95.731 354.055 83.4833C332.614 64.8868 307.368 45.1772 281.246 29.856C256.346 15.2522 224.646 1 191.711 1C86.3658 0.999985 1.00002 86.4267 1 191.765C0.999985 297.103 86.3657 382.53 191.711 382.53C224.646 382.53 256.346 368.278 281.246 353.674C307.368 338.353 332.614 318.643 354.055 300.046C368.175 287.799 381.122 275.615 392.143 264.78ZM496.409 223.748C483.704 212.729 471.952 201.64 461.943 191.765C471.952 181.889 483.704 170.801 496.409 159.782C515.397 143.312 535.419 127.955 554.137 116.977C574.079 105.281 586.792 102 592.575 102C642.102 102 682.285 142.171 682.285 191.765C682.285 241.359 642.102 281.53 592.575 281.53C586.792 281.53 574.079 278.249 554.137 266.553C535.419 255.575 515.397 240.218 496.409 223.748Z" fill="url(#paint0_linear_569_582)"/>
<path d="M191.711 102V102.5V102ZM230.148 116.977L230.401 116.546L230.148 116.977ZM287.876 159.782L288.204 159.404L287.876 159.782ZM322.342 191.765L322.693 192.121L323.054 191.765L322.693 191.409L322.342 191.765ZM287.876 223.748L287.549 223.37L287.876 223.748ZM230.148 266.553L229.895 266.122L230.148 266.553ZM430.231 300.046L430.558 299.669L430.231 300.046ZM392.143 264.78L392.493 264.423L392.143 264.078L391.792 264.423L392.143 264.78ZM503.04 353.674L503.293 353.242L503.04 353.674ZM592.575 1V0.5V1ZM503.04 29.8559L503.293 30.2872L503.04 29.8559ZM430.231 83.4833L429.903 83.1055L430.231 83.4833ZM392.143 118.75L391.792 119.107L392.143 119.451L392.493 119.107L392.143 118.75ZM354.055 83.4833L354.382 83.1056L354.055 83.4833ZM281.246 29.856L280.993 30.2873L281.246 29.856ZM191.711 1V1.5V1ZM1 191.765H0.5H1ZM281.246 353.674L281.498 354.105L281.246 353.674ZM354.055 300.046L354.382 300.424L354.055 300.046ZM461.943 191.765L461.592 191.409L461.231 191.765L461.592 192.121L461.943 191.765ZM496.409 223.748L496.736 223.37L496.409 223.748ZM496.409 159.782L496.081 159.404L496.409 159.782ZM554.137 116.977L553.884 116.546L554.137 116.977ZM592.575 102V101.5V102ZM554.137 266.553L554.39 266.122L554.137 266.553ZM191.711 101.5C141.907 101.5 101.5 141.895 101.5 191.765H102.5C102.5 142.447 142.46 102.5 191.711 102.5V101.5ZM230.401 116.546C210.436 104.836 197.628 101.5 191.711 101.5V102.5C197.358 102.5 209.978 105.726 229.895 117.408L230.401 116.546ZM288.204 159.404C269.204 142.924 249.156 127.545 230.401 116.546L229.895 117.408C248.576 128.365 268.573 143.7 287.549 160.159L288.204 159.404ZM322.693 191.409C312.678 181.528 300.919 170.432 288.204 159.404L287.549 160.159C300.244 171.17 311.988 182.251 321.991 192.121L322.693 191.409ZM288.204 224.126C300.919 213.098 312.678 202.002 322.693 192.121L321.991 191.409C311.988 201.279 300.244 212.359 287.549 223.37L288.204 224.126ZM230.401 266.984C249.156 255.984 269.204 240.606 288.204 224.126L287.549 223.37C268.573 239.83 248.576 255.165 229.895 266.122L230.401 266.984ZM191.711 282.03C197.628 282.03 210.436 278.694 230.401 266.984L229.895 266.122C209.978 277.803 197.358 281.03 191.711 281.03V282.03ZM101.5 191.765C101.5 241.635 141.907 282.03 191.711 282.03V281.03C142.46 281.03 102.5 241.083 102.5 191.765H101.5ZM430.558 299.669C416.447 287.429 403.508 275.253 392.493 264.423L391.792 265.136C402.818 275.977 415.773 288.168 429.903 300.424L430.558 299.669ZM503.293 353.242C477.207 337.943 451.986 318.255 430.558 299.669L429.903 300.424C451.355 319.031 476.628 338.762 502.787 354.105L503.293 353.242ZM592.575 382.03C559.773 382.03 528.167 367.832 503.293 353.242L502.787 354.105C527.711 368.723 559.505 383.03 592.575 383.03V382.03ZM782.785 191.765C782.785 296.827 697.643 382.03 592.575 382.03V383.03C698.196 383.03 783.785 297.379 783.785 191.765H782.785ZM592.575 1.5C697.643 1.5 782.785 86.7026 782.785 191.765H783.785C783.785 86.1507 698.196 0.500004 592.575 0.5V1.5ZM503.293 30.2872C528.167 15.698 559.773 1.5 592.575 1.5V0.5C559.505 0.5 527.711 14.8063 502.787 29.4247L503.293 30.2872ZM430.558 83.861C451.986 65.275 477.207 45.587 503.293 30.2872L502.787 29.4247C476.628 44.7674 451.355 64.4985 429.903 83.1055L430.558 83.861ZM392.493 119.107C403.508 108.277 416.447 96.1005 430.558 83.861L429.903 83.1055C415.773 95.3614 402.818 107.552 391.792 118.394L392.493 119.107ZM392.493 118.394C381.467 107.552 368.512 95.3614 354.382 83.1056L353.727 83.861C367.838 96.1005 380.778 108.277 391.792 119.107L392.493 118.394ZM354.382 83.1056C332.93 64.4985 307.658 44.7674 281.499 29.4247L280.993 30.2873C307.079 45.587 332.299 65.275 353.727 83.861L354.382 83.1056ZM281.499 29.4247C256.574 14.8063 224.781 0.500004 191.711 0.5V1.5C224.512 1.5 256.118 15.698 280.993 30.2873L281.499 29.4247ZM191.711 0.5C86.0894 0.499985 0.500015 86.1507 0.5 191.765H1.5C1.50002 86.7026 86.6421 1.49998 191.711 1.5V0.5ZM0.5 191.765C0.499985 297.379 86.0894 383.03 191.711 383.03V382.03C86.6421 382.03 1.49998 296.827 1.5 191.765H0.5ZM191.711 383.03C224.781 383.03 256.574 368.723 281.498 354.105L280.993 353.242C256.118 367.832 224.512 382.03 191.711 382.03V383.03ZM281.498 354.105C307.658 338.762 332.93 319.031 354.382 300.424L353.727 299.669C332.299 318.255 307.079 337.943 280.993 353.242L281.498 354.105ZM354.382 300.424C368.512 288.168 381.467 275.977 392.493 265.136L391.792 264.423C380.778 275.253 367.838 287.429 353.727 299.669L354.382 300.424ZM461.592 192.121C471.607 202.002 483.367 213.098 496.081 224.126L496.736 223.37C484.042 212.359 472.298 201.279 462.294 191.409L461.592 192.121ZM496.081 159.404C483.367 170.432 471.607 181.528 461.592 191.409L462.294 192.121C472.298 182.251 484.042 171.17 496.736 160.159L496.081 159.404ZM553.884 116.546C535.13 127.545 515.082 142.924 496.081 159.404L496.736 160.159C515.713 143.7 535.709 128.365 554.39 117.408L553.884 116.546ZM592.575 101.5C586.657 101.5 573.85 104.836 553.884 116.546L554.39 117.408C574.308 105.726 586.927 102.5 592.575 102.5V101.5ZM682.785 191.765C682.785 141.895 642.378 101.5 592.575 101.5V102.5C641.826 102.5 681.785 142.447 681.785 191.765H682.785ZM592.575 282.03C642.378 282.03 682.785 241.635 682.785 191.765H681.785C681.785 241.083 641.826 281.03 592.575 281.03V282.03ZM553.884 266.984C573.85 278.694 586.657 282.03 592.575 282.03V281.03C586.927 281.03 574.308 277.803 554.39 266.122L553.884 266.984ZM496.081 224.126C515.082 240.606 535.13 255.984 553.884 266.984L554.39 266.122C535.709 255.165 515.713 239.83 496.736 223.37L496.081 224.126Z" fill="url(#paint1_linear_569_582)"/>
<defs>
<linearGradient id="paint0_linear_569_582" x1="150" y1="1.00002" x2="585" y2="466" gradientUnits="userSpaceOnUse">
<stop stop-color="#1D1F38"/>
<stop offset="0.140625" stop-color="#111925"/>
<stop offset="0.839953" stop-color="#111925"/>
<stop offset="1" stop-color="#1D1C30"/>
</linearGradient>
<linearGradient id="paint1_linear_569_582" x1="565.5" y1="413" x2="519.324" y2="-34.9293" gradientUnits="userSpaceOnUse">
<stop offset="0.0695937" stop-color="#1D2039"/>
<stop offset="0.374264" stop-color="#172335"/>
<stop offset="0.542595" stop-color="#403765"/>
<stop offset="0.605756" stop-color="#192236"/>
<stop offset="0.97073" stop-color="#20233A"/>
</linearGradient>
</defs>
</svg>
